<svg width="241" height="19" viewBox="0 0 241 19" fill="none" xmlns="http://www.w3.org/2000/svg">
<path d="M102.492 12.19V4.87012H100.527V10.6098C100.497 11.2011 100.28 11.6395 99.9437 11.9555C99.5783 12.2919 99.0448 12.4856 98.383 12.4856H95.0837C94.4022 12.4856 93.8688 12.2919 93.5131 11.9555C93.1575 11.6191 92.9402 11.1297 92.9402 10.4569V4.87012H90.9844V10.2734C90.9844 11.2928 91.2313 12.2919 91.8932 13.0463C92.555 13.8008 93.6119 14.2493 95.0837 14.2493H102.482V12.19H102.492Z" fill="white"/>
<path d="M35.6026 4.88009L31.0333 14.3405C30.3806 15.6464 29.8663 16.5536 29.4805 17.072C29.0948 17.5904 28.6498 17.9492 28.1256 18.1287C27.6113 18.3081 26.8201 18.3978 25.7717 18.3978H25.3266V16.2147H25.7717C26.2464 16.2147 26.6124 16.1548 26.8695 16.0252C27.1267 15.8957 27.3245 15.7262 27.4629 15.5168C27.6014 15.3075 27.8091 14.9087 28.1058 14.3305C28.1058 14.3305 27.1761 14.3106 26.5728 12.9848C25.9695 11.6589 22.6562 4.87012 22.6562 4.87012H25.7025C25.7025 4.87012 28.5212 10.9611 28.6399 11.2003C28.7586 11.4396 29.3718 11.4296 29.4707 11.2302C29.5696 11.0309 32.4674 4.87012 32.4674 4.87012H35.6026V4.88009Z" fill="white"/>
<path d="M42.2443 14.4297H45.4947V7.08159H50.1678V4.87012H37.5811V7.08159H42.2443V14.4297Z" fill="white"/>
<path d="M80.5547 14.4297V4.87012H89.3654V6.90065H83.3753V14.4297H80.5547Z" fill="white"/>
<path d="M62.7537 5.82407C62.1139 5.19145 61.1441 4.87012 59.8643 4.87012H52.456V7.05918H59.7244C60.3043 7.05918 60.7342 7.18972 61.0141 7.4508C61.244 7.66168 61.354 7.80226 61.354 8.18384V8.3445C61.0441 8.24409 60.6742 8.19388 60.2543 8.19388H55.1854C54.1556 8.19388 53.3558 8.42484 52.7959 8.86667C52.256 9.29845 51.9561 9.95116 51.9661 10.7043V11.7386C51.9661 12.6122 52.306 13.3452 52.9358 13.7971C53.5257 14.2188 54.3355 14.4297 55.3953 14.4297H63.6535V8.38467C63.6535 7.2801 63.3536 6.41652 62.7537 5.82407ZM61.354 11.2867C61.354 11.6884 61.264 11.9293 61.0641 12.1001C60.9141 12.2206 60.6042 12.3712 59.9543 12.3712H55.6153C54.8354 12.3712 54.7655 12.2808 54.5655 12.1804C54.4355 12.1101 54.2656 11.9193 54.2656 11.608V11.1662C54.2656 10.8248 54.4255 10.5537 54.5255 10.4733C54.5855 10.4231 54.7655 10.2524 55.6253 10.2524H59.9343C60.4342 10.2524 60.8241 10.3428 61.0441 10.5235C61.2041 10.644 61.344 10.8248 61.354 11.3068V11.2867Z" fill="white"/>
<path d="M19.903 6.12137C19.1667 5.30055 18.0026 4.87012 16.55 4.87012H14.2318C12.8687 4.87012 11.824 5.19044 11.1972 5.79104C10.4908 6.47172 10.1227 7.41267 10.0829 8.67393V10.4657C10.1127 11.0463 10.1426 11.6069 9.89384 11.8471C9.7247 12.0173 9.40632 12.0874 8.8989 12.0773H8.45117V14.4297H8.88895C11.5056 14.3997 12.5503 13.4888 12.61 11.1965V8.67393C12.6299 8.22348 12.7891 7.86312 13.0777 7.60286C13.396 7.32258 13.8438 7.17243 14.391 7.17243H16.5301C17.0873 7.17243 17.545 7.32258 17.8534 7.59285C18.1618 7.88314 18.3111 8.27353 18.321 8.79405V14.4297H20.8581V8.96422C20.8581 7.78304 20.5298 6.83208 19.8831 6.12137H19.903Z" fill="white"/>
<path d="M114.799 4.87012V8.55094L106.897 8.5411V4.87012H104.839L104.829 14.2395H106.907V12.281C106.907 12.281 106.907 12.2121 106.907 12.1826V10.5291H114.809V14.2493H116.866L116.876 4.87996H114.819L114.799 4.87012Z" fill="white"/>
<path d="M78.0091 5.98256C77.3403 5.28113 76.2723 4.86027 74.775 4.87029H71.3014C70.443 4.87029 69.7343 5.0206 69.1354 5.29115V4.87029H66.3506V18.2175H69.1454V16.2334V13.7283C69.7543 13.9788 70.463 14.1191 71.3114 14.1191H74.785C76.2423 14.1191 77.3004 13.7083 77.9891 13.0169C78.6678 12.3255 78.9373 11.3836 78.9373 10.4316V8.56782C78.9373 7.6259 78.6978 6.694 78.029 5.99258L78.0091 5.98256ZM76.951 10.4216C76.951 11.1831 76.7214 11.624 76.3621 11.9247C75.9928 12.2253 75.4238 12.3856 74.6852 12.3756H71.4013C70.5928 12.3756 70.0338 12.1952 69.6844 11.8946C69.3451 11.594 69.1554 11.1531 69.1454 10.4717V8.5077C69.1554 7.76619 69.3451 7.33531 69.6844 7.05474C70.0238 6.76415 70.5828 6.60382 71.4013 6.60382H74.7052C75.4937 6.60382 76.0427 6.79421 76.402 7.11486C76.7514 7.43551 76.961 7.89645 76.961 8.56782V10.4316L76.951 10.4216Z" fill="white"/>
<path d="M3.28654 5.20066C3.28654 4.4391 3.60621 3.74768 4.05573 3.30678C4.4653 2.91597 4.97477 2.67548 6.07361 2.67548H10.429V0H0V14.4296H3.28654V5.20066Z" fill="white"/>
<path d="M125.18 14.0291C125.859 14.5113 126.791 14.718 127.919 14.718H137.276V7.95481C137.276 6.82952 136.999 5.84202 136.286 5.14159C135.572 4.44116 134.502 4.09668 133.086 4.09668H124.697V6.09464H124.777C125.433 6.09464 132.925 6.09464 132.925 6.09464C133.731 6.09464 134.226 6.30133 134.536 6.57691C134.836 6.85249 134.985 7.24289 134.985 7.71368V8.17298C134.64 8.02371 134.168 7.90888 133.524 7.90888H127.666C126.515 7.90888 125.629 8.1615 125.019 8.64376C124.409 9.12603 124.121 9.84943 124.121 10.6188V11.8129C124.121 12.7545 124.478 13.5468 125.168 14.0291H125.18ZM126.423 10.9288C126.423 10.5154 126.492 10.3317 126.676 10.1939C126.86 10.0446 127.321 9.90684 128.207 9.90684H133.167C133.823 9.90684 134.295 10.0446 134.559 10.2513C134.836 10.458 134.985 10.7566 134.985 11.2962C134.985 11.8359 134.836 12.1459 134.582 12.3641C134.329 12.5823 133.869 12.7201 133.155 12.7201H128.195C127.367 12.7201 126.906 12.5708 126.699 12.3986C126.492 12.2378 126.423 12.0311 126.411 11.6522V10.9403L126.423 10.9288Z" fill="white"/>
<path d="M159.45 8.91835L166.381 4.1197H162.933C162.933 4.1197 160.347 5.91488 158.876 6.91603C158.657 7.06563 158.128 7.4799 157.416 7.67553C157.037 7.7791 156.335 7.75609 156.335 7.75609V0H154.06V14.7182H156.335V9.9195C156.335 9.9195 157.105 9.85046 157.427 9.98855C157.83 10.1612 158.358 10.633 158.508 10.748C159.933 11.8988 163.347 14.7182 163.347 14.7182H166.76L159.45 8.92985V8.91835Z" fill="white"/>
<path d="M187.869 8.91835L194.794 4.1197H191.349C191.349 4.1197 188.765 5.91488 187.295 6.91603C187.088 7.06563 186.549 7.4799 185.837 7.67553C185.458 7.7791 184.757 7.75609 184.757 7.75609V0H182.483V14.7182H184.757V9.9195C184.757 9.9195 185.527 9.85046 185.86 9.98855C186.261 10.1612 186.79 10.633 186.939 10.748C188.363 11.8988 191.774 14.7182 191.774 14.7182H195.184L187.881 8.92985L187.869 8.91835Z" fill="white"/>
<path d="M177.931 8.32695V10.465C177.931 11.3386 177.666 11.8443 177.25 12.1892C176.823 12.534 176.165 12.7179 175.311 12.7064H171.514C170.579 12.7064 169.932 12.4995 169.529 12.1547C169.136 11.8099 168.905 11.2811 168.905 10.465V8.32695C168.905 7.44185 169.136 6.92459 169.529 6.59124C169.921 6.25789 170.567 6.07398 171.514 6.07398H175.334C176.246 6.07398 176.881 6.29238 177.296 6.66021C177.7 7.02804 177.943 7.5568 177.943 8.32695M179.166 5.3728C178.393 4.56817 177.158 4.08539 175.426 4.09688H171.41C169.759 4.09688 168.536 4.54518 167.74 5.32682C166.943 6.10846 166.608 7.18897 166.608 8.33844V10.4765C166.608 11.7869 166.989 12.8904 167.82 13.626C168.651 14.3617 169.863 14.718 171.398 14.718H175.415C177.1 14.718 178.324 14.2467 179.12 13.4536C179.905 12.6605 180.216 11.58 180.216 10.488V8.34994C180.216 7.26943 179.939 6.20042 179.166 5.39579V5.3728Z" fill="white"/>
<path d="M151.184 5.46046C150.412 4.60521 149.178 4.09668 147.461 4.09668H144.706C143.185 4.09668 142.021 4.4434 141.341 5.07907C140.672 5.72629 140.177 6.674 140.119 8.24582V10.3493C140.2 11.7131 140.234 12.707 138.332 12.6492H138.183V14.718H138.332C141.318 14.6834 142.343 13.7241 142.413 11.2277V8.21115C142.447 7.54081 142.701 7.04384 143.093 6.68556C143.519 6.30416 144.142 6.08457 144.914 6.08457H147.461C148.256 6.08457 148.879 6.30416 149.294 6.68556C149.709 7.06696 149.962 7.62172 149.962 8.38451V14.718H152.244V8.59255C152.244 7.4368 151.956 6.30416 151.184 5.44891" fill="white"/>
<path d="M208.791 5.46046C208.019 4.60521 206.786 4.09668 205.068 4.09668H202.314C200.792 4.09668 199.628 4.4434 198.948 5.07907C198.28 5.72629 197.784 6.674 197.726 8.24582V10.3493C197.807 11.7131 197.842 12.707 195.94 12.6492H195.79V14.718H195.94C198.925 14.6834 199.951 13.7241 200.02 11.2277V8.21115C200.055 7.54081 200.308 7.04384 200.7 6.68556C201.127 6.30416 201.749 6.08457 202.521 6.08457H205.068C205.864 6.08457 206.486 6.30416 206.901 6.68556C207.316 7.06696 207.57 7.62172 207.57 8.38451V14.718H209.852V8.59255C209.852 7.4368 209.564 6.30416 208.791 5.44891" fill="white"/>
<path d="M224.82 12.3859V4.09668H222.521V10.5965C222.487 11.2661 222.233 11.7625 221.84 12.1204C221.413 12.5014 220.789 12.7207 220.015 12.7207H216.157C215.36 12.7207 214.736 12.5014 214.32 12.1204C213.904 11.7394 213.65 11.1853 213.65 10.4233V4.09668H211.363V10.2155C211.363 11.37 211.652 12.5014 212.426 13.3557C213.2 14.21 214.436 14.718 216.157 14.718H224.809V12.3859H224.82Z" fill="white"/>
<path d="M229.054 8.19385V10.4582L239.789 10.4699V8.21707L229.054 8.19385Z" fill="white"/>
<path d="M240.997 4.09668H238.741L238.729 14.718H240.975L240.997 4.09668Z" fill="white"/>
<path d="M229.949 12.5014C229.949 12.5014 229.949 12.4321 229.949 12.3859V4.09668H227.704L227.692 14.718H229.96V12.5014H229.949Z" fill="white"/>
</svg>
