<svg width="8" height="16" viewBox="0 0 8 16" fill="none" xmlns="http://www.w3.org/2000/svg">
<path d="M7.82063 1.11057L1.44472 8.00071L7.82062 14.8908C7.93478 15.0139 7.99869 15.1792 7.99869 15.3513C7.99869 15.5234 7.93478 15.6886 7.82062 15.8117C7.76518 15.8713 7.69901 15.9187 7.62598 15.951C7.55294 15.9833 7.47452 16 7.3953 16C7.31608 16 7.23766 15.9833 7.16463 15.951C7.0916 15.9187 7.02542 15.8713 6.96998 15.8117L0.185769 8.48183C0.0666603 8.35311 -6.11871e-07 8.18046 -6.04014e-07 8.00071C-5.96157e-07 7.82095 0.0666603 7.6483 0.185769 7.51958L6.96867 0.189678C7.02416 0.12965 7.09049 0.0819397 7.16377 0.0493612C7.23704 0.0167837 7.31577 9.23766e-07 7.3953 9.27242e-07C7.47484 9.30719e-07 7.55357 0.0167837 7.62684 0.0493612C7.70012 0.0819397 7.76645 0.12965 7.82193 0.189678C7.93609 0.312778 8 0.478037 8 0.650125C8 0.822212 7.93609 0.987471 7.82193 1.11057L7.82063 1.11057Z" fill="white"/>
</svg>
