<svg width="158" height="200" viewBox="0 0 158 200" fill="none" xmlns="http://www.w3.org/2000/svg">
<path d="M37.931 0H157.143V200H0V35.6164L37.931 0Z" fill="#E51837"/>
<path d="M156.643 0.5V199.5H0.5V35.8311L38.1289 0.5H156.643Z" stroke="#630000" stroke-opacity="0.5"/>
<path opacity="0.15" d="M47.6172 171.43C47.6172 172.055 48.4794 172.674 50.1545 173.252C51.8297 173.83 54.285 174.355 57.3803 174.797C60.4756 175.239 64.1502 175.59 68.1944 175.829C72.2386 176.069 76.5731 176.192 80.9505 176.192C85.3279 176.192 89.6624 176.069 93.7066 175.829C97.7508 175.59 101.425 175.239 104.521 174.797C107.616 174.355 110.071 173.83 111.746 173.252C113.422 172.674 114.284 172.055 114.284 171.43C114.284 170.805 113.422 170.185 111.746 169.608C110.071 169.03 107.616 168.505 104.521 168.063C101.425 167.621 97.7508 167.27 93.7066 167.03C89.6624 166.791 85.3279 166.668 80.9505 166.668C76.5731 166.668 72.2386 166.791 68.1944 167.03C64.1502 167.27 60.4756 167.621 57.3803 168.063C54.285 168.505 51.8297 169.03 50.1545 169.608C48.4794 170.185 47.6172 170.805 47.6172 171.43Z" fill="#E00000"/>
<path d="M127.332 109.915C126.286 106.111 125.798 102.161 125.886 98.2021C125.956 96.0218 125.594 93.85 124.825 91.8241C124.055 89.7983 122.894 87.9624 121.415 86.4327L118.898 83.8141C117.45 82.2568 115.71 81.0342 113.787 80.2245C111.864 79.4149 109.802 79.0359 107.733 79.112C103.955 79.176 100.19 78.6349 96.5672 77.507C81.5193 73.2554 65.1594 79.6188 53.2442 92.1203C41.329 104.622 35.3045 121.938 39.3477 137.79C40.3895 141.595 40.8682 145.545 40.7668 149.503C40.7088 151.685 41.0783 153.855 41.8522 155.88C42.626 157.905 43.7877 159.74 45.2651 161.273L47.7552 163.891C49.2099 165.447 50.9558 166.668 52.8823 167.477C54.8088 168.286 56.874 168.666 58.9474 168.593C62.7123 168.5 66.4686 169.013 70.0861 170.114C85.1607 174.366 101.521 168.002 113.409 155.501C125.297 142.999 131.349 125.767 127.332 109.915Z" fill="#FFE500"/>
<path d="M53.2474 105.57C65.1643 93.3647 81.5265 87.1521 96.5765 91.303C100.204 92.3762 103.969 92.8768 107.743 92.7874C109.814 92.7132 111.876 93.0832 113.799 93.8736C115.722 94.6641 117.463 95.8577 118.91 97.3782L121.428 99.9347C122.907 101.428 124.068 103.221 124.838 105.198C125.608 107.176 125.969 109.297 125.9 111.425C125.811 115.29 126.299 119.147 127.346 122.861C127.587 123.85 127.801 124.84 127.989 125.857C128.94 120.294 128.721 114.585 127.346 109.116C126.299 105.402 125.811 101.546 125.9 97.6805C125.969 95.5519 125.608 93.4316 124.838 91.4537C124.068 89.4759 122.907 87.6835 121.428 86.19L118.91 83.6335C117.463 82.113 115.722 80.9194 113.799 80.129C111.876 79.3385 109.814 78.9685 107.743 79.0428C103.965 79.1053 100.2 78.577 96.5765 77.4759C81.5265 73.325 65.1643 79.5376 53.2474 91.7428C42.1876 103.261 36.1086 118.71 38.6795 133.334C40.6591 122.769 45.743 113.08 53.2474 105.57Z" fill="#FFF48C"/>
<path d="M127.332 109.915C126.286 106.111 125.798 102.161 125.886 98.2021C125.956 96.0218 125.594 93.85 124.825 91.8241C124.055 89.7983 122.894 87.9624 121.415 86.4327L118.898 83.8141C117.45 82.2568 115.71 81.0342 113.787 80.2245C111.864 79.4149 109.802 79.0359 107.733 79.112C103.955 79.176 100.19 78.6349 96.5672 77.507C81.5193 73.2554 65.1594 79.6188 53.2442 92.1203C41.329 104.622 35.3045 121.938 39.3477 137.79C40.3895 141.595 40.8682 145.545 40.7668 149.503C40.7088 151.685 41.0783 153.855 41.8522 155.88C42.626 157.905 43.7877 159.74 45.2651 161.273L47.7552 163.891C49.2099 165.447 50.9558 166.668 52.8823 167.477C54.8088 168.286 56.874 168.666 58.9474 168.593C62.7123 168.5 66.4686 169.013 70.0861 170.114C85.1607 174.365 101.521 168.002 113.409 155.501C125.297 142.999 131.349 125.767 127.332 109.915Z" stroke="#E00000" stroke-width="0.5" stroke-linecap="round" stroke-linejoin="round"/>
<path d="M114.281 86.7284C119.487 81.9968 126.17 78.4924 133.626 76.5846C140.906 74.9892 142.432 78.5848 142.843 81.3469C142.909 82.037 142.638 82.7203 142.089 83.2501C141.54 83.7799 140.757 84.114 139.908 84.1805C132.318 84.8477 125.044 87.0054 118.714 90.4668C114.751 90.705 114.281 86.7284 114.281 86.7284Z" fill="#DEBB7E"/>
<path d="M116.096 90.4771C120.983 86.2592 127.018 83.1483 133.656 81.4243C138.632 80.2958 140.944 81.7252 142.027 83.6561C142.605 83.0898 142.9 82.351 142.847 81.5998C142.583 78.741 140.915 74.9544 133.656 76.5844C126.188 78.5884 119.492 82.2888 114.281 87.2923C114.452 88.4982 115.091 89.6199 116.096 90.4771Z" fill="#F0D5A8"/>
<path d="M114.281 86.7271C119.496 82.0006 126.176 78.4949 133.626 76.5749C140.906 75.002 142.432 78.6005 142.843 81.3412C142.909 82.0318 142.638 82.7157 142.089 83.2459C141.54 83.7762 140.757 84.1106 139.908 84.1772C132.321 84.8542 125.049 87.0129 118.714 90.4687C114.751 90.6832 114.281 86.7271 114.281 86.7271Z" stroke="#E00000" stroke-width="0.5" stroke-linecap="round" stroke-linejoin="round"/>
<path d="M117.752 85.7142C119.307 81.2097 119.458 76.3491 118.186 71.7592C116.914 67.1692 114.276 63.0604 110.614 59.9625C107.088 56.3261 102.514 53.8461 97.5116 52.8585C92.5091 51.8708 87.3197 52.4231 82.646 54.4405C82.1326 54.6626 81.6973 55.0297 81.3951 55.4954C81.0928 55.9612 80.9372 56.5047 80.9477 57.0576C80.8931 61.0461 81.7637 64.9941 83.4929 68.6001C85.2221 72.206 87.7642 75.3744 90.925 77.8631C101.406 85.7142 112.127 76.6592 117.752 85.7142Z" fill="#6DD627"/>
<path d="M82.6441 63.427C87.3089 61.1514 92.49 60.5157 97.4903 61.6053C102.491 62.6948 107.07 65.4574 110.613 69.5214C114.889 73.7429 117.744 79.4536 118.706 85.7142C119.396 81.1409 119.014 76.4476 117.597 72.0855C116.179 67.7235 113.774 63.8393 110.613 60.8067C107.071 56.7404 102.49 53.9783 97.4882 52.8937C92.4863 51.809 87.3049 52.4541 82.6441 54.7417C82.1307 54.9916 81.6954 55.4045 81.3932 55.9285C81.0909 56.4524 80.9353 57.0639 80.9458 57.6859C80.97 59.9323 81.1922 62.1707 81.6092 64.3691C81.8837 63.9703 82.238 63.6478 82.6441 63.427Z" fill="#9CEB60"/>
<path d="M117.752 85.7142C119.307 81.2097 119.458 76.3491 118.186 71.7592C116.914 67.1692 114.276 63.0604 110.614 59.9625C107.088 56.3261 102.514 53.8461 97.5116 52.8585C92.5091 51.8708 87.3197 52.4231 82.646 54.4405C82.1326 54.6626 81.6973 55.0297 81.3951 55.4954C81.0928 55.9612 80.9372 56.5047 80.9477 57.0576C80.8931 61.0461 81.7637 64.9941 83.4929 68.6001C85.2221 72.206 87.7642 75.3744 90.925 77.8631C101.406 85.7142 112.127 76.6592 117.752 85.7142Z" stroke="#E00000" stroke-width="0.5" stroke-linecap="round" stroke-linejoin="round"/>
<path d="M114.286 90.4775C114.286 90.4775 114.286 73.629 100 66.668" stroke="#E00000" stroke-width="0.5" stroke-linecap="round" stroke-linejoin="round"/>
</svg>
