<svg width="773" height="234" viewBox="0 0 773 234" fill="none" xmlns="http://www.w3.org/2000/svg">
<path d="M693 67.5826V27H682.068V58.8217C681.903 62.1 680.694 64.5304 678.827 66.2826C676.794 68.1478 673.827 69.2217 670.147 69.2217H651.798C648.008 69.2217 645.041 68.1478 643.064 66.2826C641.086 64.4174 639.877 61.7043 639.877 57.9739V27H629V56.9565C629 62.6087 630.373 68.1478 634.054 72.3304C637.735 76.513 643.613 79 651.798 79H692.945V67.5826H693Z" fill="#26347F"/>
<path d="M321 27.0553L295.588 79.5055C291.958 86.7458 289.098 91.7752 286.953 94.6492C284.807 97.5232 282.332 99.5129 279.417 100.508C276.557 101.503 272.157 102 266.326 102H263.851V89.8961H266.326C268.966 89.8961 271.002 89.5645 272.432 88.846C273.862 88.1275 274.962 87.1879 275.732 86.0273C276.502 84.8666 277.657 82.6559 279.307 79.4503C279.307 79.4503 274.137 79.3397 270.782 71.9889C267.426 64.6382 249 27 249 27H265.941C265.941 27 281.617 60.7693 282.277 62.0958C282.937 63.4223 286.348 63.367 286.898 62.2616C287.448 61.1562 303.564 27 303.564 27H321V27.0553Z" fill="#26347F"/>
<path d="M357.934 80H376.011V39.2608H402V27H332V39.2608H357.934V80Z" fill="#26347F"/>
<path d="M571 80V27H620V38.2576H586.687V80H571Z" fill="#26347F"/>
<path d="M471.996 32.2889C468.437 28.7815 463.044 27 455.927 27H414.726V39.1366H455.148C458.373 39.1366 460.764 39.8603 462.321 41.3078C463.6 42.4769 464.212 43.2563 464.212 45.3719V46.2626C462.488 45.7059 460.431 45.4275 458.095 45.4275H429.905C424.178 45.4275 419.73 46.708 416.616 49.1576C413.614 51.5515 411.946 55.1702 412.001 59.3456V65.0798C412.001 69.9233 413.892 73.9874 417.395 76.4927C420.675 78.8309 425.179 80 431.073 80H477V46.4853C477 40.3613 475.332 35.5735 471.996 32.2889ZM464.212 62.5746C464.212 64.8015 463.711 66.1376 462.599 67.084C461.765 67.7521 460.041 68.5872 456.427 68.5872H432.296C427.959 68.5872 427.57 68.0861 426.458 67.5294C425.735 67.1397 424.79 66.0819 424.79 64.3561V61.9065C424.79 60.0137 425.679 58.5105 426.235 58.0651C426.569 57.7868 427.57 56.8403 432.352 56.8403H456.316C459.096 56.8403 461.265 57.3414 462.488 58.3435C463.378 59.0116 464.156 60.0137 464.212 62.6859V62.5746Z" fill="#26347F"/>
<path d="M233.688 33.9372C229.593 29.3864 223.119 27 215.041 27H202.148C194.568 27 188.758 28.7759 185.272 32.1058C181.343 35.8796 179.296 41.0963 179.075 48.089V58.023C179.241 61.2419 179.407 64.3497 178.023 65.6817C177.083 66.6251 175.312 67.0136 172.49 66.9581H170V80H172.435C186.987 79.8335 192.797 74.7832 193.129 62.0743V48.089C193.24 45.5916 194.125 43.5937 195.73 42.1508C197.5 40.5969 199.99 39.7644 203.034 39.7644H214.93C218.029 39.7644 220.574 40.5969 222.289 42.0953C224.005 43.7047 224.835 45.8691 224.89 48.755V80H239V49.6984C239 43.1497 237.174 37.8775 233.577 33.9372H233.688Z" fill="#26347F"/>
<path d="M761.444 27V47.4071L717.5 47.3526V27H706.056L706 78.9454H717.556V68.0871C717.556 68.0871 717.556 67.7051 717.556 67.5415V58.3746H761.5V79H772.944L773 27.0546H761.556L761.444 27Z" fill="#26347F"/>
<path d="M556.837 33.1676C553.118 29.2787 547.178 26.9454 538.852 27.001H519.534C514.76 27.001 510.818 27.8343 507.488 29.3343V27.001H492V101H507.543V90.0001V76.1114C510.929 77.5003 514.871 78.2781 519.589 78.2781H538.907C547.012 78.2781 552.896 76.0003 556.726 72.167C560.501 68.3338 562 63.1116 562 57.8339V47.5007C562 42.2785 560.668 37.1119 556.948 33.2231L556.837 33.1676ZM550.953 57.7783C550.953 62.0005 549.676 64.4449 547.678 66.1116C545.624 67.7782 542.46 68.6671 538.352 68.6115H520.089C515.592 68.6115 512.484 67.6115 510.541 65.9449C508.653 64.2783 507.599 61.8338 507.543 58.0561V47.1674C507.599 43.0563 508.653 40.6675 510.541 39.1119C512.428 37.5008 515.537 36.612 520.089 36.612H538.463C542.849 36.612 545.902 37.6675 547.9 39.4453C549.843 41.223 551.009 43.7785 551.009 47.5007V57.8339L550.953 57.7783Z" fill="#26347F"/>
<path d="M141.278 28.8333C141.278 24.6111 143.056 20.7778 145.556 18.3333C147.833 16.1667 150.667 14.8333 156.778 14.8333H181V0H123V80H141.278V28.8333Z" fill="#26347F"/>
<path d="M7.00262 229.459C11.4934 232.638 17.6588 234 25.1181 234H87V189.427C87 182.011 85.1732 175.503 80.4541 170.886C75.7349 166.27 68.6562 164 59.294 164H3.80577V177.168H4.33858C8.67716 177.168 58.2283 177.168 58.2283 177.168C63.5564 177.168 66.8294 178.53 68.8845 180.346C70.8635 182.162 71.853 184.735 71.853 187.838V190.865C69.5696 189.881 66.4488 189.124 62.1864 189.124H23.4436C15.832 189.124 9.97113 190.789 5.93701 193.968C1.90289 197.146 0 201.914 0 206.984V214.854C0 221.059 2.35958 226.281 6.92651 229.459H7.00262ZM15.2231 209.027C15.2231 206.303 15.6798 205.092 16.8976 204.184C18.1155 203.2 21.1601 202.292 27.021 202.292H59.8268C64.1654 202.292 67.2861 203.2 69.0367 204.562C70.8635 205.924 71.853 207.892 71.853 211.449C71.853 215.005 70.8635 217.049 69.189 218.486C67.5144 219.924 64.4698 220.832 59.7507 220.832H26.9449C21.4646 220.832 18.4199 219.849 17.0499 218.714C15.6798 217.654 15.2231 216.292 15.147 213.795V209.103L15.2231 209.027Z" fill="#26347F"/>
<path d="M233.652 195.776L279.491 164.151H256.686C256.686 164.151 239.582 175.982 229.852 182.58C228.407 183.566 224.91 186.296 220.197 187.586C217.689 188.268 213.052 188.116 213.052 188.116V137H198V234H213.052V202.375C213.052 202.375 218.145 201.919 220.273 202.83C222.934 203.967 226.431 207.077 227.419 207.835C236.845 215.419 259.423 234 259.423 234H282L233.652 195.852V195.776Z" fill="#26347F"/>
<path d="M421.62 195.776L467.418 164.151H444.633C444.633 164.151 427.544 175.982 417.823 182.58C416.456 183.566 412.886 186.296 408.177 187.586C405.671 188.268 401.038 188.116 401.038 188.116V137H386V234H401.038V202.375C401.038 202.375 406.127 201.919 408.329 202.83C410.987 203.967 414.481 207.077 415.468 207.835C424.886 215.419 447.443 234 447.443 234H470L421.696 195.852L421.62 195.776Z" fill="#26347F"/>
<path d="M355.886 191.88V205.97C355.886 211.728 354.13 215.061 351.382 217.334C348.557 219.606 344.206 220.818 338.557 220.743H313.443C307.26 220.743 302.985 219.379 300.313 217.106C297.718 214.834 296.191 211.349 296.191 205.97V191.88C296.191 186.046 297.718 182.637 300.313 180.44C302.908 178.243 307.183 177.031 313.443 177.031H338.71C344.74 177.031 348.939 178.471 351.687 180.895C354.359 183.319 355.962 186.804 355.962 191.88M364.053 172.41C358.939 167.107 350.771 163.926 339.321 164.001H312.756C301.84 164.001 293.748 166.956 288.481 172.107C283.214 177.259 281 184.38 281 191.955V206.046C281 214.682 283.519 221.955 289.015 226.803C294.511 231.652 302.527 234 312.679 234H339.244C350.389 234 358.481 230.894 363.748 225.667C368.939 220.44 371 213.319 371 206.122V192.031C371 184.91 369.168 177.865 364.053 172.562V172.41Z" fill="#26347F"/>
<path d="M178.987 172.988C173.879 167.351 165.723 164 154.365 164H136.146C126.084 164 118.384 166.285 113.887 170.474C109.466 174.74 106.188 180.986 105.807 191.345V205.208C106.34 214.196 106.569 220.746 93.991 220.366H93V234H93.991C113.734 233.771 120.519 227.449 120.976 210.997V191.116C121.205 186.699 122.882 183.423 125.474 181.062C128.294 178.548 132.411 177.101 137.518 177.101H154.365C159.625 177.101 163.741 178.548 166.485 181.062C169.229 183.576 170.907 187.232 170.907 192.259V234H186V193.63C186 186.013 184.094 178.548 178.987 172.912" fill="#26347F"/>
<path d="M559.987 172.988C554.88 167.351 546.723 164 535.365 164H517.146C507.084 164 499.384 166.285 494.887 170.474C490.466 174.74 487.188 180.986 486.807 191.345V205.208C487.34 214.196 487.569 220.746 474.991 220.366H474V234H474.991C494.734 233.771 501.519 227.449 501.976 210.997V191.116C502.205 186.699 503.882 183.423 506.474 181.062C509.294 178.548 513.411 177.101 518.518 177.101H535.365C540.625 177.101 544.741 178.548 547.485 181.062C550.23 183.576 551.907 187.232 551.907 192.259V234H567V193.63C567 186.013 565.094 178.548 559.987 172.912" fill="#26347F"/>
<path d="M666 218.63V164H650.797V206.837C650.568 211.25 648.888 214.522 646.29 216.88C643.464 219.391 639.338 220.837 634.22 220.837H608.704C603.433 220.837 599.307 219.391 596.557 216.88C593.807 214.37 592.126 210.717 592.126 205.696V164H577V204.326C577 211.935 578.91 219.391 584.028 225.022C589.147 230.652 597.321 234 608.704 234H665.924V218.63H666Z" fill="#26347F"/>
<path d="M694 191V205.923L765 206V191.153L694 191Z" fill="#26347F"/>
<path d="M773 164H758.075L758 234H772.85L773 164Z" fill="#26347F"/>
<path d="M699.925 219.391C699.925 219.391 699.925 218.935 699.925 218.63V164H685.075L685 234H700V219.391H699.925Z" fill="#26347F"/>
</svg>
