<svg width="63" height="63" viewBox="0 0 63 63" fill="none" xmlns="http://www.w3.org/2000/svg">
<path d="M42.9698 31.26C42.9698 34.3656 41.7361 37.344 39.5401 39.5401M42.9698 31.26C42.9698 28.1544 41.7361 25.1759 39.5401 22.9799M42.9698 31.26H48.8247M39.5401 39.5401C37.344 41.7361 34.3656 42.9698 31.26 42.9698M39.5401 39.5401L43.6802 43.6802M31.26 42.9698C28.1544 42.9698 25.1759 41.7361 22.9799 39.5401M31.26 42.9698V48.8247M39.5401 22.9799C37.344 20.7839 34.3656 19.5502 31.26 19.5502M39.5401 22.9799L43.6802 18.8398M31.26 19.5502C28.1544 19.5502 25.1759 20.7839 22.9799 22.9799M31.26 19.5502V13.6953M22.9799 39.5401C20.7839 37.344 19.5502 34.3656 19.5502 31.26M22.9799 39.5401L18.8398 43.6802M19.5502 31.26C19.5502 28.1544 20.7839 25.1759 22.9799 22.9799M19.5502 31.26H13.6953M22.9799 22.9799L18.8398 18.8398" stroke="white" stroke-width="1.5" stroke-linecap="round" stroke-linejoin="round"/>
<circle cx="31.5" cy="31.5" r="31" stroke="white"/>
</svg>
