<svg width="62" height="54" viewBox="0 0 62 54" fill="none" xmlns="http://www.w3.org/2000/svg">
<g clip-path="url(#clip0_817_206277)">
<path fill-rule="evenodd" clip-rule="evenodd" d="M27.006 25.7617V19.4297H34.2494V25.7617H40.5875V32.9983H34.2494V39.3303H27.006V32.9983H20.668V25.7617H27.006Z" stroke="#26347F" stroke-linecap="round" stroke-linejoin="round"/>
<path d="M29.8633 53.1937C48.7324 53.1937 58.2767 53.1937 58.4961 53.1937C58.8253 53.1937 59.3002 52.9906 59.5978 52.7417C59.8955 52.4928 60.5919 51.8755 60.858 51.5751C61.1241 51.2746 61.388 51.0838 61.388 50.354C61.388 49.8674 61.388 43.3158 61.388 30.6992" stroke="#26347F" stroke-linecap="round" stroke-linejoin="round"/>
<path d="M29.8633 8.43911C48.7324 8.43911 58.2767 8.43911 58.4961 8.43911C58.8253 8.43911 59.3002 8.64222 59.5978 8.89111C59.8955 9.14 60.5919 9.7573 60.858 10.0578C61.1241 10.3582 61.388 10.549 61.388 11.2788C61.388 11.7654 61.388 18.317 61.388 30.9336" stroke="#26347F" stroke-linecap="round" stroke-linejoin="round"/>
<path d="M32.3281 53.1937C13.459 53.1937 3.91474 53.1937 3.6953 53.1937C3.36614 53.1937 2.89124 52.9906 2.59358 52.7417C2.29592 52.4928 1.59948 51.8755 1.33341 51.5751C1.06734 51.2746 0.803415 51.0838 0.803415 50.354C0.803415 49.8674 0.803415 43.3158 0.803415 30.6992" stroke="#26347F" stroke-linecap="round" stroke-linejoin="round"/>
<path d="M32.3281 8.43911C13.459 8.43911 3.91474 8.43911 3.6953 8.43911C3.36614 8.43911 2.89124 8.64222 2.59358 8.89111C2.29592 9.14 1.59948 9.7573 1.33341 10.0578C1.06734 10.3582 0.803415 10.549 0.803415 11.2788C0.803415 11.7654 0.803415 18.317 0.803415 30.9336" stroke="#26347F" stroke-linecap="round" stroke-linejoin="round"/>
<path d="M45.6719 8.61477V12.5481H55.3122V8.53906" stroke="#26347F" stroke-linecap="round" stroke-linejoin="round"/>
<path d="M6.92188 8.61477V12.5481H16.5622V8.53906" stroke="#26347F" stroke-linecap="round" stroke-linejoin="round"/>
<path d="M7.15625 19.9375V49.3566" stroke="#26347F" stroke-linecap="round" stroke-linejoin="round"/>
<path d="M0.96875 49.3594H61.5331" stroke="#26347F" stroke-linecap="round" stroke-linejoin="round"/>
<path d="M55.2188 19.9375V49.3566" stroke="#26347F" stroke-linecap="round" stroke-linejoin="round"/>
<path d="M19.5859 8.41929C20.5168 6.70354 22.6977 1.57698 23.0976 1.05412C23.4975 0.53125 23.8808 0.53125 24.8735 0.53125C25.5354 0.53125 27.6201 0.53125 31.1276 0.53125" stroke="#26347F" stroke-linecap="round" stroke-linejoin="round"/>
<path d="M41.7852 8.41929C40.8543 6.70354 38.6734 1.57698 38.2735 1.05412C37.8736 0.53125 37.4903 0.53125 36.4976 0.53125C35.8357 0.53125 33.751 0.53125 30.2435 0.53125" stroke="#26347F" stroke-linecap="round" stroke-linejoin="round"/>
<path d="M27.1289 0.746094V4.83004" stroke="#26347F" stroke-linecap="round" stroke-linejoin="round"/>
<path d="M31.0039 0.746094V4.83004" stroke="#26347F" stroke-linecap="round" stroke-linejoin="round"/>
<path d="M34.8789 0.746094V4.83004" stroke="#26347F" stroke-linecap="round" stroke-linejoin="round"/>
<path d="M39.881 4.77344H21.4258" stroke="#26347F" stroke-linecap="round" stroke-linejoin="round"/>
<path d="M32.7879 8.73667C32.7879 7.74987 31.9871 6.94991 30.9994 6.94991C30.0117 6.94991 29.2109 7.74987 29.2109 8.73667C29.2109 9.72348 30.0117 10.5234 30.9994 10.5234C31.9871 10.5234 32.7879 9.72348 32.7879 8.73667Z" fill="#26347F" stroke="#26347F" stroke-width="1.5"/>
<path d="M33.3864 8.73483C33.3864 7.4191 32.3188 6.35248 31.0018 6.35248C29.6848 6.35248 28.6172 7.4191 28.6172 8.73483C28.6172 10.0506 29.6848 11.1172 31.0018 11.1172C32.3188 11.1172 33.3864 10.0506 33.3864 8.73483Z" stroke="#26347F"/>
<path d="M32.7879 49.2367C32.7879 48.2499 31.9871 47.4499 30.9994 47.4499C30.0117 47.4499 29.2109 48.2499 29.2109 49.2367C29.2109 50.2235 30.0117 51.0234 30.9994 51.0234C31.9871 51.0234 32.7879 50.2235 32.7879 49.2367Z" fill="#26347F" stroke="#26347F" stroke-width="1.5"/>
<path d="M33.3864 49.2348C33.3864 47.9191 32.3188 46.8525 31.0018 46.8525C29.6848 46.8525 28.6172 47.9191 28.6172 49.2348C28.6172 50.5506 29.6848 51.6172 31.0018 51.6172C32.3188 51.6172 33.3864 50.5506 33.3864 49.2348Z" stroke="#26347F"/>
<path d="M8.94411 19.8539C8.94411 18.8671 8.14339 18.0671 7.15565 18.0671C6.16791 18.0671 5.36719 18.8671 5.36719 19.8539C5.36719 20.8407 6.16791 21.6406 7.15565 21.6406C8.14339 21.6406 8.94411 20.8407 8.94411 19.8539Z" fill="#26347F" stroke="#26347F" stroke-width="1.5"/>
<path d="M9.53876 19.852C9.53876 18.5363 8.47113 17.4697 7.15415 17.4697C5.83716 17.4697 4.76953 18.5363 4.76953 19.852C4.76953 21.1678 5.83716 22.2344 7.15415 22.2344C8.47113 22.2344 9.53876 21.1678 9.53876 19.852Z" stroke="#26347F"/>
<path d="M57.03 19.8539C57.03 18.8671 56.2293 18.0671 55.2416 18.0671C54.2538 18.0671 53.4531 18.8671 53.4531 19.8539C53.4531 20.8407 54.2538 21.6406 55.2416 21.6406C56.2293 21.6406 57.03 20.8407 57.03 19.8539Z" fill="#26347F" stroke="#26347F" stroke-width="1.5"/>
<path d="M57.6286 19.852C57.6286 18.5363 56.561 17.4697 55.244 17.4697C53.927 17.4697 52.8594 18.5363 52.8594 19.852C52.8594 21.1678 53.927 22.2344 55.244 22.2344C56.561 22.2344 57.6286 21.1678 57.6286 19.852Z" stroke="#26347F"/>
</g>
<defs>
<clipPath id="clip0_817_206277">
<rect width="62" height="54" fill="white"/>
</clipPath>
</defs>
</svg>
