<svg width="61" height="64" viewBox="0 0 61 64" fill="none" xmlns="http://www.w3.org/2000/svg">
<circle cx="1.5" cy="1.5" r="1" transform="matrix(0.765405 0.643549 -0.657489 0.753464 47 12)" stroke="#26347F"/>
<circle cx="1.5" cy="1.5" r="1" transform="matrix(0.765405 0.643549 -0.657489 0.753464 14 48)" stroke="#26347F"/>
<circle cx="1.5" cy="1.5" r="1" transform="matrix(0.765405 0.643549 -0.657489 0.753464 8 50)" stroke="#26347F"/>
<circle cx="1.5" cy="1.5" r="1" transform="matrix(0.765405 0.643549 -0.657489 0.753464 53 10)" stroke="#26347F"/>
<circle cx="1.5" cy="1.5" r="1" transform="matrix(0.765405 0.643549 -0.657489 0.753464 40 34)" stroke="#26347F"/>
<circle cx="1.5" cy="1.5" r="1" transform="matrix(0.765405 0.643549 -0.657489 0.753464 45.0039 28)" stroke="#26347F"/>
<circle cx="1.5" cy="1.5" r="1" transform="matrix(0.765405 0.643549 -0.657489 0.753464 16 33)" stroke="#26347F"/>
<circle cx="2" cy="2" r="1.5" transform="matrix(0.765405 0.643549 -0.657489 0.753464 40 15)" stroke="#26347F"/>
<circle cx="2" cy="2" r="1.5" transform="matrix(0.765405 0.643549 -0.657489 0.753464 21 46)" stroke="#26347F"/>
<circle cx="2" cy="2" r="1.5" transform="matrix(0.765405 0.643549 -0.657489 0.753464 19 26)" stroke="#26347F"/>
<circle cx="2.5" cy="2.5" r="2" transform="matrix(0.765405 0.643549 -0.657489 0.753464 32 16)" stroke="#26347F"/>
<circle cx="2.5" cy="2.5" r="2" transform="matrix(0.765405 0.643549 -0.657489 0.753464 29 43)" stroke="#26347F"/>
<circle cx="2.5" cy="2.5" r="2" transform="matrix(0.765405 0.643549 -0.657489 0.753464 35 39)" stroke="#26347F"/>
<circle cx="2.5" cy="2.5" r="2" transform="matrix(0.765405 0.643549 -0.657489 0.753464 24 19)" stroke="#26347F"/>
<rect x="0.026979" y="0.349253" width="5.5" height="0.5" transform="matrix(0.765405 0.643549 -0.657489 0.753464 42.236 18.0687)" stroke="#26347F" stroke-width="0.5"/>
<rect x="0.026979" y="0.349253" width="5.5" height="0.5" transform="matrix(0.765405 0.643549 -0.657489 0.753464 16.236 44.0687)" stroke="#26347F" stroke-width="0.5"/>
<rect x="0.026979" y="0.349253" width="13.5" height="0.5" transform="matrix(0.765405 0.643549 -0.657489 0.753464 34.236 20.0687)" stroke="#26347F" stroke-width="0.5"/>
<rect x="0.026979" y="0.349253" width="14.5" height="0.5" transform="matrix(0.765405 0.643549 -0.657489 0.753464 17.236 35.0687)" stroke="#26347F" stroke-width="0.5"/>
<rect x="0.026979" y="0.349253" width="17.5" height="0.5" transform="matrix(0.765405 0.643549 -0.657489 0.753464 26.236 23.0687)" stroke="#26347F" stroke-width="0.5"/>
<rect x="0.026979" y="0.349253" width="17.5" height="0.5" transform="matrix(0.765405 0.643549 -0.657489 0.753464 20.236 29.0687)" stroke="#26347F" stroke-width="0.5"/>
</svg>
