<svg width="53" height="53" viewBox="0 0 53 53" fill="none" xmlns="http://www.w3.org/2000/svg">
<path d="M37.3076 38.3574H48.9717L45.6875 44.9355C45.2654 45.7039 44.6932 46.3137 43.9678 46.7725C43.2516 47.2253 42.4627 47.4521 41.5889 47.4521H37.3076V51.79L28.4326 42.9043L37.3076 34.0186V38.3574ZM22.1846 38.3574V47.4521H13.4219C12.6744 47.4521 12.0007 47.2579 11.3887 46.8691C10.8491 46.5264 10.4386 46.0954 10.1484 45.5732L10.0312 45.3438L10.0254 45.3311L9.9209 45.1055C9.69354 44.5747 9.58952 44.0267 9.60645 43.457C9.62579 42.8068 9.79984 42.2051 10.1328 41.6455L12.1279 38.3574H22.1846ZM16.4844 32.7578L13.1777 30.7422L12.7471 30.4795L12.4883 30.9121L7.22266 39.7188L3.53516 32.334C3.19417 31.6511 3.03249 30.9222 3.05078 30.1406C3.06887 29.3703 3.28393 28.646 3.70312 27.96L3.70703 27.9531L4.71484 26.25L4.96777 25.8232L4.54297 25.5674L1.28516 23.6006L13.4355 20.5449L16.4844 32.7578ZM51.8086 27.9551L51.8135 27.9629L51.8184 27.9697C52.2307 28.6078 52.4571 29.3214 52.4951 30.1201C52.5328 30.9126 52.3641 31.6404 51.9902 32.3145L51.9844 32.3242L51.9795 32.334C51.602 33.0899 51.0475 33.6934 50.3066 34.1504C49.5679 34.606 48.7662 34.8329 47.8906 34.833H45.3369L40.1367 26.1738L48.0283 21.626L51.8086 27.9551ZM32.7666 0.5C33.5608 0.5 34.306 0.698364 35.0098 1.09863C35.7148 1.49964 36.2718 2.03874 36.6875 2.7207L39.9619 8.20605L40.2227 8.64258L40.6543 8.375L43.8926 6.37207L40.8467 18.5732L28.707 15.5205L32.0146 13.5537L32.4453 13.2969L32.1875 12.8662L24.7646 0.5H32.7666ZM20.3857 1.95117C21.1461 1.95117 21.7119 2.27229 22.1299 2.96973V2.9707L25.6924 8.89551L20.498 17.4854L12.7217 12.8252L18.6396 2.9707C19.0593 2.27277 19.6254 1.95127 20.3857 1.95117Z" stroke="#26347F"/>
</svg>
