<svg width="117" height="19" viewBox="0 0 117 19" fill="none" xmlns="http://www.w3.org/2000/svg">
<path d="M102.492 12.1898V4.86993H100.527V10.6096C100.497 11.2009 100.28 11.6393 99.9437 11.9553C99.5783 12.2917 99.0448 12.4855 98.383 12.4855H95.0837C94.4022 12.4855 93.8688 12.2917 93.5131 11.9553C93.1575 11.6189 92.9402 11.1295 92.9402 10.4567V4.86993H90.9844V10.2732C90.9844 11.2927 91.2313 12.2918 91.8932 13.0462C92.555 13.8006 93.6119 14.2492 95.0837 14.2492H102.482V12.1898H102.492Z" fill="white"/>
<path d="M35.6026 4.8799L31.0333 14.3403C30.3806 15.6462 29.8663 16.5534 29.4805 17.0718C29.0948 17.5902 28.6498 17.9491 28.1256 18.1285C27.6113 18.3079 26.8201 18.3977 25.7717 18.3977H25.3266V16.2145H25.7717C26.2464 16.2145 26.6124 16.1547 26.8695 16.0251C27.1267 15.8955 27.3245 15.726 27.4629 15.5167C27.6014 15.3073 27.8091 14.9086 28.1058 14.3304C28.1058 14.3304 27.1761 14.3104 26.5728 12.9846C25.9695 11.6587 22.6562 4.86993 22.6562 4.86993H25.7025C25.7025 4.86993 28.5212 10.9609 28.6399 11.2001C28.7586 11.4394 29.3718 11.4294 29.4707 11.2301C29.5696 11.0307 32.4674 4.86993 32.4674 4.86993H35.6026V4.8799Z" fill="white"/>
<path d="M42.2443 14.4295H45.4947V7.08141H50.1678V4.86993H37.5811V7.08141H42.2443V14.4295Z" fill="white"/>
<path d="M80.5547 14.4295V4.86993H89.3654V6.90047H83.3753V14.4295H80.5547Z" fill="white"/>
<path d="M62.7537 5.82388C62.1139 5.19126 61.1441 4.86993 59.8643 4.86993H52.456V7.059H59.7244C60.3043 7.059 60.7342 7.18954 61.0141 7.45062C61.244 7.66149 61.354 7.80208 61.354 8.18366V8.34432C61.0441 8.24391 60.6742 8.1937 60.2543 8.1937H55.1854C54.1556 8.1937 53.3558 8.42465 52.7959 8.86648C52.256 9.29827 51.9561 9.95097 51.9661 10.7041V11.7384C51.9661 12.612 52.306 13.345 52.9358 13.7969C53.5257 14.2186 54.3355 14.4295 55.3953 14.4295H63.6535V8.38449C63.6535 7.27991 63.3536 6.41634 62.7537 5.82388ZM61.354 11.2865C61.354 11.6882 61.264 11.9292 61.0641 12.0999C60.9141 12.2204 60.6042 12.371 59.9543 12.371H55.6153C54.8354 12.371 54.7655 12.2806 54.5655 12.1802C54.4355 12.1099 54.2656 11.9191 54.2656 11.6078V11.166C54.2656 10.8246 54.4255 10.5535 54.5255 10.4731C54.5855 10.4229 54.7655 10.2522 55.6253 10.2522H59.9343C60.4342 10.2522 60.8241 10.3426 61.0441 10.5233C61.2041 10.6438 61.344 10.8246 61.354 11.3066V11.2865Z" fill="white"/>
<path d="M19.903 6.12119C19.1667 5.30037 18.0026 4.86993 16.55 4.86993H14.2318C12.8687 4.86993 11.824 5.19026 11.1972 5.79086C10.4908 6.47154 10.1227 7.41248 10.0829 8.67375V10.4655C10.1127 11.0461 10.1426 11.6067 9.89384 11.8469C9.7247 12.0171 9.40632 12.0872 8.8989 12.0772H8.45117V14.4295H8.88895C11.5056 14.3995 12.5503 13.4886 12.61 11.1963V8.67375C12.6299 8.2233 12.7891 7.86294 13.0777 7.60267C13.396 7.32239 13.8438 7.17224 14.391 7.17224H16.5301C17.0873 7.17224 17.545 7.32239 17.8534 7.59266C18.1618 7.88296 18.3111 8.27335 18.321 8.79387V14.4295H20.8581V8.96404C20.8581 7.78286 20.5298 6.8319 19.8831 6.12119H19.903Z" fill="white"/>
<path d="M114.799 4.86993V8.55076L106.897 8.54092V4.86993H104.839L104.829 14.2393H106.907V12.2808C106.907 12.2808 106.907 12.2119 106.907 12.1824V10.529H114.809V14.2492H116.866L116.876 4.87978H114.819L114.799 4.86993Z" fill="white"/>
<path d="M78.0091 5.98237C77.3403 5.28095 76.2723 4.86009 74.775 4.87011H71.3014C70.443 4.87011 69.7343 5.02042 69.1354 5.29097V4.87011H66.3506V18.2173H69.1454V16.2332V13.7281C69.7543 13.9787 70.463 14.1189 71.3114 14.1189H74.785C76.2423 14.1189 77.3004 13.7081 77.9891 13.0167C78.6678 12.3253 78.9373 11.3834 78.9373 10.4314V8.56764C78.9373 7.62572 78.6978 6.69382 78.029 5.99239L78.0091 5.98237ZM76.951 10.4214C76.951 11.183 76.7214 11.6239 76.3621 11.9245C75.9928 12.2251 75.4238 12.3854 74.6852 12.3754H71.4013C70.5928 12.3754 70.0338 12.195 69.6844 11.8944C69.3451 11.5938 69.1554 11.1529 69.1454 10.4715V8.50751C69.1554 7.766 69.3451 7.33513 69.6844 7.05456C70.0238 6.76396 70.5828 6.60364 71.4013 6.60364H74.7052C75.4937 6.60364 76.0427 6.79403 76.402 7.11468C76.7514 7.43533 76.961 7.89627 76.961 8.56764V10.4314L76.951 10.4214Z" fill="white"/>
<path d="M3.28654 5.20066C3.28654 4.4391 3.60621 3.74768 4.05573 3.30678C4.4653 2.91597 4.97477 2.67548 6.07361 2.67548H10.429V0H0V14.4296H3.28654V5.20066Z" fill="white"/>
</svg>
