<svg width="103" height="31" viewBox="0 0 103 31" fill="none" xmlns="http://www.w3.org/2000/svg">
<path d="M88.7162 10.4857V4.0946H87.0842V9.10603C87.0596 9.62231 86.8792 10.0051 86.6003 10.281C86.2969 10.5747 85.854 10.7439 85.3046 10.7439H82.5655C81.9996 10.7439 81.5568 10.5747 81.2615 10.281C80.9663 9.98726 80.7859 9.56 80.7859 8.97251V4.0946H79.1621V8.81229C79.1621 9.70242 79.3671 10.5747 79.9166 11.2334C80.4661 11.8921 81.3435 12.2838 82.5655 12.2838H88.708V10.4857H88.7162Z" fill="white"/>
<path d="M30.0273 4.10366L26.1736 12.6942C25.623 13.88 25.1893 14.7037 24.864 15.1745C24.5387 15.6452 24.1633 15.971 23.7212 16.134C23.2874 16.2969 22.6201 16.3784 21.7359 16.3784H21.3606V14.396H21.7359C22.1363 14.396 22.445 14.3417 22.6618 14.224C22.8787 14.1063 23.0455 13.9524 23.1623 13.7623C23.2791 13.5722 23.4543 13.2101 23.7045 12.6851C23.7045 12.6851 22.9204 12.667 22.4116 11.4631C21.9028 10.2591 19.1084 4.0946 19.1084 4.0946H21.6776C21.6776 4.0946 24.0549 9.62547 24.155 9.84273C24.2551 10.06 24.7722 10.0509 24.8556 9.86988C24.9391 9.68884 27.3831 4.0946 27.3831 4.0946H30.0273V4.10366Z" fill="white"/>
<path d="M36.8022 12.2838H39.6219V5.98905H43.6758V4.0946H32.7568V5.98905H36.8022V12.2838Z" fill="white"/>
<path d="M69.6084 12.2838V4.0946H77.7976V5.83405H72.2301V12.2838H69.6084Z" fill="white"/>
<path d="M53.8595 4.9118C53.3365 4.36987 52.5437 4.0946 51.4976 4.0946H45.4417V5.96986H51.3832C51.8572 5.96986 52.2086 6.08169 52.4375 6.30534C52.6255 6.48599 52.7154 6.60641 52.7154 6.93329V7.07093C52.462 6.98491 52.1596 6.9419 51.8164 6.9419H47.6728C46.831 6.9419 46.1772 7.13974 45.7195 7.51824C45.2782 7.88813 45.033 8.44726 45.0412 9.09242V9.97843C45.0412 10.7268 45.3191 11.3548 45.834 11.7419C46.3161 12.1032 46.9781 12.2838 47.8444 12.2838H54.5951V7.10534C54.5951 6.15911 54.3499 5.41933 53.8595 4.9118ZM52.7154 9.59134C52.7154 9.93542 52.6418 10.1419 52.4783 10.2881C52.3558 10.3913 52.1024 10.5204 51.5712 10.5204H48.0242C47.3868 10.5204 47.3296 10.4429 47.1661 10.3569C47.0599 10.2967 46.9209 10.1333 46.9209 9.86661V9.48811C46.9209 9.19564 47.0517 8.96339 47.1334 8.89457C47.1825 8.85156 47.3296 8.70532 48.0324 8.70532H51.5548C51.9635 8.70532 52.2822 8.78274 52.462 8.93758C52.5928 9.04081 52.7072 9.19564 52.7154 9.60854V9.59134Z" fill="white"/>
<path d="M16.9025 5.16649C16.2546 4.46333 15.2301 4.0946 13.9517 4.0946H11.9115C10.7119 4.0946 9.79255 4.36901 9.24092 4.88351C8.61923 5.46662 8.29525 6.27267 8.26023 7.35313V8.88807C8.2865 9.38542 8.31276 9.86562 8.09386 10.0714C7.94501 10.2172 7.66481 10.2772 7.21825 10.2687H6.82422V12.2838H7.20949C9.51236 12.2581 10.4318 11.4777 10.4843 9.51405V7.35313C10.5018 6.96725 10.6419 6.65855 10.8958 6.4356C11.176 6.1955 11.5701 6.06687 12.0516 6.06687H13.9342C14.4246 6.06687 14.8273 6.1955 15.0988 6.42702C15.3702 6.6757 15.5016 7.01013 15.5103 7.45603V12.2838H17.7431V7.60181C17.7431 6.58995 17.4542 5.77532 16.885 5.16649H16.9025Z" fill="white"/>
<path d="M99.1168 4.0946V7.30841L91.9552 7.29982V4.0946H90.0901L90.0811 12.2752H91.9643V10.5652C91.9643 10.5652 91.9643 10.505 91.9643 10.4793V9.03562H99.1258V12.2838H100.991L101 4.1032H99.1349L99.1168 4.0946Z" fill="white"/>
<path d="M67.4379 5.1184C66.8577 4.47287 65.9312 4.08554 64.6324 4.09477H61.6191C60.8744 4.09477 60.2596 4.23309 59.7401 4.48209V4.09477H57.3242V16.3784H59.7487V14.5524V12.247C60.2769 12.4775 60.8917 12.6066 61.6277 12.6066H64.641C65.9052 12.6066 66.8231 12.2285 67.4205 11.5922C68.0093 10.9559 68.2431 10.089 68.2431 9.21294V7.49766C68.2431 6.6308 68.0353 5.77316 67.4552 5.12762L67.4379 5.1184ZM66.52 9.20372C66.52 9.90459 66.3209 10.3104 66.0091 10.587C65.6888 10.8637 65.1952 11.0112 64.5544 11.002H61.7056C61.0043 11.002 60.5194 10.836 60.2163 10.5593C59.9219 10.2827 59.7574 9.87692 59.7487 9.24983V7.44233C59.7574 6.75991 59.9219 6.36336 60.2163 6.10515C60.5107 5.83771 60.9956 5.69016 61.7056 5.69016H64.5718C65.2558 5.69016 65.732 5.86538 66.0438 6.16048C66.3468 6.45558 66.5287 6.87979 66.5287 7.49766V9.21294L66.52 9.20372Z" fill="white"/>
<path d="M3.01081 4.42728C3.01081 3.77897 3.30365 3.19037 3.71547 2.81503C4.09067 2.48235 4.55739 2.27762 5.56405 2.27762H9.55405V0H0V12.2838H3.01081V4.42728Z" fill="white"/>
<path d="M0.896266 30.3637C1.47105 30.7429 2.26015 30.9054 3.21487 30.9054H11.1351V25.5876C11.1351 24.7028 10.9013 23.9263 10.2973 23.3756C9.69331 22.8249 8.78731 22.554 7.58904 22.554H0.487101V24.125H0.555295C1.11059 24.125 7.45265 24.125 7.45265 24.125C8.13459 24.125 8.5535 24.2875 8.81653 24.5042C9.06982 24.7209 9.19647 25.0278 9.19647 25.398V25.7591C8.90421 25.6418 8.50479 25.5515 7.95923 25.5515H3.00054C2.02634 25.5515 1.27621 25.7501 0.759879 26.1293C0.243551 26.5085 0 27.0773 0 27.6822V28.6212C0 29.3615 0.302003 29.9845 0.886524 30.3637H0.896266ZM1.94841 27.926C1.94841 27.6009 2.00686 27.4565 2.16273 27.3481C2.3186 27.2308 2.70828 27.1224 3.45842 27.1224H7.65723C8.21253 27.1224 8.61195 27.2308 8.83602 27.3933C9.06983 27.5558 9.19647 27.7905 9.19647 28.2149C9.19647 28.6392 9.06983 28.883 8.8555 29.0545C8.64118 29.2261 8.2515 29.3344 7.64749 29.3344H3.44868C2.74725 29.3344 2.35757 29.217 2.18221 29.0816C2.00686 28.9552 1.9484 28.7927 1.93866 28.4948V27.935L1.94841 27.926Z" fill="white"/>
<path d="M31.1724 25.969L37.2489 21.8847H34.2258C34.2258 21.8847 31.9584 23.4127 30.6686 24.2648C30.4771 24.3921 30.0136 24.7447 29.3888 24.9112C29.0562 24.9994 28.4415 24.9798 28.4415 24.9798V18.3784H26.4463V30.9054H28.4415V26.8211C28.4415 26.8211 29.1167 26.7624 29.3989 26.8799C29.7516 27.0268 30.2151 27.4284 30.3461 27.5263C31.5957 28.5058 34.5885 30.9054 34.5885 30.9054H37.5814L31.1724 25.9788V25.969Z" fill="white"/>
<path d="M56.2219 25.969L62.2928 21.8847H59.2724C59.2724 21.8847 57.0072 23.4127 55.7185 24.2648C55.5372 24.3921 55.064 24.7447 54.4398 24.9112C54.1076 24.9994 53.4935 24.9798 53.4935 24.9798V18.3784H51.5V30.9054H53.4935V26.8211C53.4935 26.8211 54.168 26.7624 54.46 26.8799C54.8124 27.0268 55.2755 27.4284 55.4064 27.5263C56.6548 28.5058 59.645 30.9054 59.645 30.9054H62.6351L56.2319 25.9788L56.2219 25.969Z" fill="white"/>
<path d="M48.0043 25.8802V27.5613C48.0043 28.2482 47.7599 28.6458 47.3774 28.917C46.9843 29.1881 46.3787 29.3327 45.5924 29.3237H42.0967C41.2361 29.3237 40.6411 29.161 40.2692 28.8899C39.908 28.6187 39.6955 28.203 39.6955 27.5613V25.8802C39.6955 25.1843 39.908 24.7775 40.2692 24.5154C40.6305 24.2533 41.2255 24.1087 42.0967 24.1087H45.6137C46.453 24.1087 47.0374 24.2804 47.4199 24.5697C47.7918 24.8589 48.0149 25.2746 48.0149 25.8802M49.1412 23.5574C48.4293 22.9247 47.2924 22.5451 45.6987 22.5542H42.0011C40.4817 22.5542 39.3555 22.9067 38.6223 23.5212C37.8892 24.1358 37.5811 24.9854 37.5811 25.8892V27.5703C37.5811 28.6007 37.9317 29.4683 38.6967 30.0467C39.4617 30.6252 40.5773 30.9054 41.9905 30.9054H45.688C47.2393 30.9054 48.3656 30.5348 49.0987 29.9112C49.8212 29.2875 50.1081 28.438 50.1081 27.5793V25.8983C50.1081 25.0487 49.8531 24.2081 49.1412 23.5755V23.5574Z" fill="white"/>
<path d="M24.1097 23.6263C23.4217 22.9539 22.3231 22.554 20.7931 22.554H18.3391C16.9837 22.554 15.9466 22.8266 15.3408 23.3264C14.7452 23.8353 14.3037 24.5805 14.2524 25.8164V27.4703C14.3243 28.5426 14.3551 29.3242 12.6608 29.2787H12.5273V30.9054H12.6608C15.3203 30.8781 16.2341 30.1238 16.2957 28.161V25.7891C16.3265 25.2621 16.5524 24.8713 16.9015 24.5896C17.2815 24.2897 17.8359 24.1171 18.5239 24.1171H20.7931C21.5016 24.1171 22.0561 24.2897 22.4257 24.5896C22.7954 24.8895 23.0213 25.3257 23.0213 25.9255V30.9054H25.0544V26.089C25.0544 25.1803 24.7977 24.2897 24.1097 23.6172" fill="white"/>
<path d="M74.2171 23.6263C73.5292 22.9539 72.4305 22.554 70.9005 22.554H68.4465C67.0911 22.554 66.054 22.8266 65.4482 23.3264C64.8527 23.8353 64.4111 24.5805 64.3598 25.8164V27.4703C64.4317 28.5426 64.4625 29.3242 62.7683 29.2787H62.6348V30.9054H62.7683C65.4277 30.8781 66.3415 30.1238 66.4031 28.161V25.7891C66.434 25.2621 66.6598 24.8713 67.009 24.5896C67.3889 24.2897 67.9434 24.1171 68.6313 24.1171H70.9005C71.609 24.1171 72.1635 24.2897 72.5332 24.5896C72.9028 24.8895 73.1287 25.3257 73.1287 25.9255V30.9054H75.1618V26.089C75.1618 25.1803 74.9051 24.2897 74.2171 23.6172" fill="white"/>
<path d="M89.0807 29.0717V22.554H86.9409V27.6647C86.9087 28.1912 86.6721 28.5815 86.3065 28.8629C85.9087 29.1625 85.328 29.335 84.6076 29.335H81.0161C80.2742 29.335 79.6935 29.1625 79.3064 28.8629C78.9193 28.5634 78.6828 28.1276 78.6828 27.5285V22.554H76.5537V27.3651C76.5537 28.2729 76.8225 29.1625 77.543 29.8342C78.2634 30.506 79.414 30.9054 81.0161 30.9054H89.07V29.0717H89.0807Z" fill="white"/>
<path d="M93.2568 25.3378V26.7226L101.608 26.7297V25.352L93.2568 25.3378Z" fill="white"/>
<path d="M103 22.554H101.615L101.608 30.9054H102.986L103 22.554Z" fill="white"/>
<path d="M93.2502 29.1625C93.2502 29.1625 93.2502 29.108 93.2502 29.0717V22.554H91.8722L91.8652 30.9054H93.2571V29.1625H93.2502Z" fill="white"/>
</svg>
