<svg width="241" height="19" viewBox="0 0 241 19" fill="none" xmlns="http://www.w3.org/2000/svg">
<path d="M102.492 12.1898V4.86993H100.527V10.6096C100.497 11.2009 100.28 11.6393 99.9437 11.9553C99.5783 12.2917 99.0448 12.4855 98.383 12.4855H95.0837C94.4022 12.4855 93.8688 12.2917 93.5131 11.9553C93.1575 11.6189 92.9402 11.1295 92.9402 10.4567V4.86993H90.9844V10.2732C90.9844 11.2927 91.2313 12.2918 91.8932 13.0462C92.555 13.8006 93.6119 14.2492 95.0837 14.2492H102.482V12.1898H102.492Z" fill="white"/>
<path d="M35.6026 4.8799L31.0333 14.3403C30.3806 15.6462 29.8663 16.5534 29.4805 17.0718C29.0948 17.5902 28.6498 17.9491 28.1256 18.1285C27.6113 18.3079 26.8201 18.3977 25.7717 18.3977H25.3266V16.2145H25.7717C26.2464 16.2145 26.6124 16.1547 26.8695 16.0251C27.1267 15.8955 27.3245 15.726 27.4629 15.5167C27.6014 15.3073 27.8091 14.9086 28.1058 14.3304C28.1058 14.3304 27.1761 14.3104 26.5728 12.9846C25.9695 11.6587 22.6562 4.86993 22.6562 4.86993H25.7025C25.7025 4.86993 28.5212 10.9609 28.6399 11.2001C28.7586 11.4394 29.3718 11.4294 29.4707 11.2301C29.5696 11.0307 32.4674 4.86993 32.4674 4.86993H35.6026V4.8799Z" fill="white"/>
<path d="M42.2443 14.4295H45.4947V7.08141H50.1678V4.86993H37.5811V7.08141H42.2443V14.4295Z" fill="white"/>
<path d="M80.5547 14.4295V4.86993H89.3654V6.90047H83.3753V14.4295H80.5547Z" fill="white"/>
<path d="M62.7537 5.82388C62.1139 5.19126 61.1441 4.86993 59.8643 4.86993H52.456V7.059H59.7244C60.3043 7.059 60.7342 7.18954 61.0141 7.45062C61.244 7.66149 61.354 7.80208 61.354 8.18366V8.34432C61.0441 8.24391 60.6742 8.1937 60.2543 8.1937H55.1854C54.1556 8.1937 53.3558 8.42465 52.7959 8.86648C52.256 9.29827 51.9561 9.95097 51.9661 10.7041V11.7384C51.9661 12.612 52.306 13.345 52.9358 13.7969C53.5257 14.2186 54.3355 14.4295 55.3953 14.4295H63.6535V8.38449C63.6535 7.27991 63.3536 6.41634 62.7537 5.82388ZM61.354 11.2865C61.354 11.6882 61.264 11.9292 61.0641 12.0999C60.9141 12.2204 60.6042 12.371 59.9543 12.371H55.6153C54.8354 12.371 54.7655 12.2806 54.5655 12.1802C54.4355 12.1099 54.2656 11.9191 54.2656 11.6078V11.166C54.2656 10.8246 54.4255 10.5535 54.5255 10.4731C54.5855 10.4229 54.7655 10.2522 55.6253 10.2522H59.9343C60.4342 10.2522 60.8241 10.3426 61.0441 10.5233C61.2041 10.6438 61.344 10.8246 61.354 11.3066V11.2865Z" fill="white"/>
<path d="M19.903 6.12119C19.1667 5.30037 18.0026 4.86993 16.55 4.86993H14.2318C12.8687 4.86993 11.824 5.19026 11.1972 5.79086C10.4908 6.47154 10.1227 7.41248 10.0829 8.67375V10.4655C10.1127 11.0461 10.1426 11.6067 9.89384 11.8469C9.7247 12.0171 9.40632 12.0872 8.8989 12.0772H8.45117V14.4295H8.88895C11.5056 14.3995 12.5503 13.4886 12.61 11.1963V8.67375C12.6299 8.2233 12.7891 7.86294 13.0777 7.60267C13.396 7.32239 13.8438 7.17224 14.391 7.17224H16.5301C17.0873 7.17224 17.545 7.32239 17.8534 7.59266C18.1618 7.88296 18.3111 8.27335 18.321 8.79387V14.4295H20.8581V8.96404C20.8581 7.78286 20.5298 6.8319 19.8831 6.12119H19.903Z" fill="white"/>
<path d="M114.799 4.86993V8.55076L106.897 8.54092V4.86993H104.839L104.829 14.2393H106.907V12.2808C106.907 12.2808 106.907 12.2119 106.907 12.1824V10.529H114.809V14.2492H116.866L116.876 4.87978H114.819L114.799 4.86993Z" fill="white"/>
<path d="M78.0091 5.98237C77.3403 5.28095 76.2723 4.86009 74.775 4.87011H71.3014C70.443 4.87011 69.7343 5.02042 69.1354 5.29097V4.87011H66.3506V18.2173H69.1454V16.2332V13.7281C69.7543 13.9787 70.463 14.1189 71.3114 14.1189H74.785C76.2423 14.1189 77.3004 13.7081 77.9891 13.0167C78.6678 12.3253 78.9373 11.3834 78.9373 10.4314V8.56764C78.9373 7.62572 78.6978 6.69382 78.029 5.99239L78.0091 5.98237ZM76.951 10.4214C76.951 11.183 76.7214 11.6239 76.3621 11.9245C75.9928 12.2251 75.4238 12.3854 74.6852 12.3754H71.4013C70.5928 12.3754 70.0338 12.195 69.6844 11.8944C69.3451 11.5938 69.1554 11.1529 69.1454 10.4715V8.50751C69.1554 7.766 69.3451 7.33513 69.6844 7.05456C70.0238 6.76396 70.5828 6.60364 71.4013 6.60364H74.7052C75.4937 6.60364 76.0427 6.79403 76.402 7.11468C76.7514 7.43533 76.961 7.89627 76.961 8.56764V10.4314L76.951 10.4214Z" fill="white"/>
<path d="M3.28654 5.20066C3.28654 4.4391 3.60621 3.74768 4.05573 3.30678C4.4653 2.91597 4.97477 2.67548 6.07361 2.67548H10.429V0H0V14.4296H3.28654V5.20066Z" fill="white"/>
<path d="M125.18 14.0291C125.859 14.5114 126.791 14.7181 127.919 14.7181H137.276V7.95487C137.276 6.82958 136.999 5.84209 136.286 5.14165C135.572 4.44122 134.502 4.09674 133.086 4.09674H124.697V6.0947H124.777C125.433 6.0947 132.925 6.0947 132.925 6.0947C133.731 6.0947 134.226 6.30139 134.536 6.57697C134.836 6.85255 134.985 7.24295 134.985 7.71374V8.17304C134.64 8.02377 134.168 7.90894 133.524 7.90894H127.666C126.515 7.90894 125.629 8.16156 125.019 8.64382C124.409 9.12609 124.121 9.84949 124.121 10.6188V11.813C124.121 12.7546 124.478 13.5469 125.168 14.0291H125.18ZM126.423 10.9289C126.423 10.5155 126.492 10.3318 126.676 10.194C126.86 10.0447 127.321 9.9069 128.207 9.9069H133.167C133.823 9.9069 134.295 10.0447 134.559 10.2514C134.836 10.4581 134.985 10.7566 134.985 11.2963C134.985 11.836 134.836 12.146 134.582 12.3642C134.329 12.5823 133.869 12.7201 133.155 12.7201H128.195C127.367 12.7201 126.906 12.5709 126.699 12.3986C126.492 12.2379 126.423 12.0312 126.411 11.6522V10.9403L126.423 10.9289Z" fill="white"/>
<path d="M159.45 8.91835L166.381 4.1197H162.933C162.933 4.1197 160.347 5.91488 158.876 6.91603C158.657 7.06563 158.128 7.4799 157.416 7.67553C157.037 7.7791 156.335 7.75609 156.335 7.75609V0H154.06V14.7182H156.335V9.9195C156.335 9.9195 157.105 9.85046 157.427 9.98855C157.83 10.1612 158.358 10.633 158.508 10.748C159.933 11.8988 163.347 14.7182 163.347 14.7182H166.76L159.45 8.92985V8.91835Z" fill="white"/>
<path d="M187.869 8.91835L194.794 4.1197H191.349C191.349 4.1197 188.765 5.91488 187.295 6.91603C187.088 7.06563 186.549 7.4799 185.837 7.67553C185.458 7.7791 184.757 7.75609 184.757 7.75609V0H182.483V14.7182H184.757V9.9195C184.757 9.9195 185.527 9.85046 185.86 9.98855C186.261 10.1612 186.79 10.633 186.939 10.748C188.363 11.8988 191.774 14.7182 191.774 14.7182H195.184L187.881 8.92985L187.869 8.91835Z" fill="white"/>
<path d="M177.931 8.32701V10.465C177.931 11.3386 177.666 11.8444 177.25 12.1892C176.823 12.5341 176.165 12.718 175.311 12.7065H171.514C170.579 12.7065 169.932 12.4996 169.529 12.1548C169.136 11.8099 168.905 11.2812 168.905 10.465V8.32701C168.905 7.44191 169.136 6.92465 169.529 6.5913C169.921 6.25795 170.567 6.07404 171.514 6.07404H175.334C176.246 6.07404 176.881 6.29244 177.296 6.66027C177.7 7.0281 177.943 7.55686 177.943 8.32701M179.166 5.37286C178.393 4.56823 177.158 4.08545 175.426 4.09694H171.41C169.759 4.09694 168.536 4.54524 167.74 5.32688C166.943 6.10852 166.608 7.18903 166.608 8.3385V10.4765C166.608 11.7869 166.989 12.8904 167.82 13.6261C168.651 14.3617 169.863 14.7181 171.398 14.7181H175.415C177.1 14.7181 178.324 14.2468 179.12 13.4537C179.905 12.6605 180.216 11.58 180.216 10.488V8.35C180.216 7.26949 179.939 6.20048 179.166 5.39585V5.37286Z" fill="white"/>
<path d="M151.184 5.46052C150.412 4.60527 149.178 4.09674 147.461 4.09674H144.706C143.185 4.09674 142.021 4.44346 141.341 5.07913C140.672 5.72635 140.177 6.67406 140.119 8.24588V10.3493C140.2 11.7131 140.234 12.7071 138.332 12.6493H138.183V14.7181H138.332C141.318 14.6834 142.343 13.7241 142.413 11.2277V8.21121C142.447 7.54088 142.701 7.0439 143.093 6.68562C143.519 6.30422 144.142 6.08463 144.914 6.08463H147.461C148.256 6.08463 148.879 6.30422 149.294 6.68562C149.709 7.06702 149.962 7.62178 149.962 8.38457V14.7181H152.244V8.59261C152.244 7.43686 151.956 6.30422 151.184 5.44897" fill="white"/>
<path d="M208.791 5.46052C208.019 4.60527 206.786 4.09674 205.068 4.09674H202.314C200.792 4.09674 199.628 4.44346 198.948 5.07913C198.28 5.72635 197.784 6.67406 197.726 8.24588V10.3493C197.807 11.7131 197.842 12.7071 195.94 12.6493H195.79V14.7181H195.94C198.925 14.6834 199.951 13.7241 200.02 11.2277V8.21121C200.055 7.54088 200.308 7.0439 200.7 6.68562C201.127 6.30422 201.749 6.08463 202.521 6.08463H205.068C205.864 6.08463 206.486 6.30422 206.901 6.68562C207.316 7.06702 207.57 7.62178 207.57 8.38457V14.7181H209.852V8.59261C209.852 7.43686 209.564 6.30422 208.791 5.44897" fill="white"/>
<path d="M224.82 12.386V4.09674H222.521V10.5965C222.487 11.2661 222.233 11.7626 221.84 12.1205C221.413 12.5015 220.789 12.7208 220.015 12.7208H216.157C215.36 12.7208 214.736 12.5015 214.32 12.1205C213.904 11.7395 213.65 11.1853 213.65 10.4234V4.09674H211.363V10.2156C211.363 11.3701 211.652 12.5015 212.426 13.3558C213.2 14.2101 214.436 14.7181 216.157 14.7181H224.809V12.386H224.82Z" fill="white"/>
<path d="M229.054 8.19373V10.4581L239.789 10.4697V8.21695L229.054 8.19373Z" fill="white"/>
<path d="M240.997 4.09674H238.741L238.729 14.7181H240.975L240.997 4.09674Z" fill="white"/>
<path d="M229.949 12.5015C229.949 12.5015 229.949 12.4322 229.949 12.386V4.09674H227.704L227.692 14.7181H229.96V12.5015H229.949Z" fill="white"/>
</svg>
