<svg width="117" height="15" viewBox="0 0 117 15" fill="none" xmlns="http://www.w3.org/2000/svg">
<path d="M1.0588 14.0291C1.73781 14.5114 2.67001 14.7181 3.79786 14.7181H13.1544V7.95487C13.1544 6.82958 12.8782 5.84209 12.1647 5.14165C11.4511 4.44122 10.3808 4.09674 8.96526 4.09674H0.575434V6.0947H0.655995C1.31199 6.0947 8.80414 6.0947 8.80414 6.0947C9.60975 6.0947 10.1046 6.30139 10.4154 6.57697C10.7146 6.85255 10.8642 7.24295 10.8642 7.71374V8.17304C10.5189 8.02377 10.0471 7.90894 9.4026 7.90894H3.54467C2.39381 7.90894 1.50764 8.16156 0.897678 8.64382C0.287718 9.12609 0 9.84949 0 10.6188V11.813C0 12.7546 0.356769 13.5469 1.04729 14.0291H1.0588ZM2.30174 10.9289C2.30174 10.5155 2.37079 10.3318 2.55493 10.194C2.73907 10.0447 3.19941 9.9069 4.08558 9.9069H9.04583C9.70182 9.9069 10.1737 10.0447 10.4384 10.2514C10.7146 10.4581 10.8642 10.7566 10.8642 11.2963C10.8642 11.836 10.7146 12.146 10.4614 12.3642C10.2082 12.5823 9.74786 12.7201 9.03432 12.7201H4.07407C3.24545 12.7201 2.7851 12.5709 2.57794 12.3986C2.37079 12.2379 2.30174 12.0312 2.29023 11.6522V10.9403L2.30174 10.9289Z" fill="white"/>
<path d="M35.3291 8.91835L42.26 4.1197H38.8118C38.8118 4.1197 36.2257 5.91488 34.7544 6.91603C34.5361 7.06563 34.0073 7.4799 33.2947 7.67553C32.9154 7.7791 32.2143 7.75609 32.2143 7.75609V0H29.9385V14.7182H32.2143V9.9195C32.2143 9.9195 32.9844 9.85046 33.3062 9.98855C33.7085 10.1612 34.2372 10.633 34.3866 10.748C35.8119 11.8988 39.2256 14.7182 39.2256 14.7182H42.6393L35.3291 8.92985V8.91835Z" fill="white"/>
<path d="M63.7481 8.91835L70.6727 4.1197H67.2276C67.2276 4.1197 64.6438 5.91488 63.1739 6.91603C62.9672 7.06563 62.4275 7.4799 61.7155 7.67553C61.3365 7.7791 60.6361 7.75609 60.6361 7.75609V0H58.3623V14.7182H60.6361V9.9195C60.6361 9.9195 61.4055 9.85046 61.7385 9.98855C62.1404 10.1612 62.6686 10.633 62.8179 10.748C64.2419 11.8988 67.6525 14.7182 67.6525 14.7182H71.0631L63.7596 8.92985L63.7481 8.91835Z" fill="white"/>
<path d="M53.81 8.32701V10.465C53.81 11.3386 53.5446 11.8444 53.129 12.1892C52.702 12.5341 52.0441 12.718 51.19 12.7065H47.3927C46.4578 12.7065 45.8114 12.4996 45.4074 12.1548C45.015 11.8099 44.7842 11.2812 44.7842 10.465V8.32701C44.7842 7.44191 45.015 6.92465 45.4074 6.5913C45.7999 6.25795 46.4462 6.07404 47.3927 6.07404H51.2131C52.1249 6.07404 52.7597 6.29244 53.1752 6.66027C53.5792 7.0281 53.8216 7.55686 53.8216 8.32701M55.045 5.37286C54.2717 4.56823 53.0367 4.08545 51.3054 4.09694H47.2888C45.6383 4.09694 44.4148 4.54524 43.6184 5.32688C42.822 6.10852 42.4873 7.18903 42.4873 8.3385V10.4765C42.4873 11.7869 42.8682 12.8904 43.6992 13.6261C44.5302 14.3617 45.7422 14.7181 47.2772 14.7181H51.2939C52.979 14.7181 54.2024 14.2468 54.9988 13.4537C55.7837 12.6605 56.0953 11.58 56.0953 10.488V8.35C56.0953 7.26949 55.8183 6.20048 55.045 5.39585V5.37286Z" fill="white"/>
<path d="M27.0628 5.46052C26.2905 4.60527 25.0573 4.09674 23.3399 4.09674H20.5852C19.0638 4.09674 17.8997 4.44346 17.2196 5.07913C16.5511 5.72635 16.0555 6.67406 15.9979 8.24588V10.3493C16.0786 11.7131 16.1131 12.7071 14.2114 12.6493H14.0615V14.7181H14.2114C17.1966 14.6834 18.2224 13.7241 18.2915 11.2277V8.21121C18.3261 7.54088 18.5797 7.0439 18.9716 6.68562C19.398 6.30422 20.0204 6.08463 20.7927 6.08463H23.3399C24.1352 6.08463 24.7576 6.30422 25.1725 6.68562C25.5874 7.06702 25.841 7.62178 25.841 8.38457V14.7181H28.1232V8.59261C28.1232 7.43686 27.835 6.30422 27.0628 5.44897" fill="white"/>
<path d="M84.6702 5.46052C83.898 4.60527 82.6647 4.09674 80.9473 4.09674H78.1926C76.6712 4.09674 75.5071 4.44346 74.8271 5.07913C74.1586 5.72635 73.6629 6.67406 73.6053 8.24588V10.3493C73.686 11.7131 73.7206 12.7071 71.8188 12.6493H71.6689V14.7181H71.8188C74.804 14.6834 75.8298 13.7241 75.899 11.2277V8.21121C75.9335 7.54088 76.1871 7.0439 76.579 6.68562C77.0054 6.30422 77.6279 6.08463 78.4001 6.08463H80.9473C81.7426 6.08463 82.365 6.30422 82.7799 6.68562C83.1949 7.06702 83.4484 7.62178 83.4484 8.38457V14.7181H85.7306V8.59261C85.7306 7.43686 85.4424 6.30422 84.6702 5.44897" fill="white"/>
<path d="M100.699 12.386V4.09674H98.4004V10.5965C98.3657 11.2661 98.1116 11.7626 97.7189 12.1205C97.2915 12.5015 96.6677 12.7208 95.8938 12.7208H92.0358C91.2388 12.7208 90.6151 12.5015 90.1992 12.1205C89.7834 11.7395 89.5293 11.1853 89.5293 10.4234V4.09674H87.2422V10.2156C87.2422 11.3701 87.531 12.5015 88.3049 13.3558C89.0788 14.2101 90.3147 14.7181 92.0358 14.7181H100.687V12.386H100.699Z" fill="white"/>
<path d="M104.933 8.19373V10.4581L115.668 10.4697V8.21695L104.933 8.19373Z" fill="white"/>
<path d="M116.876 4.09674H114.62L114.608 14.7181H116.854L116.876 4.09674Z" fill="white"/>
<path d="M105.828 12.5015C105.828 12.5015 105.828 12.4322 105.828 12.386V4.09674H103.583L103.571 14.7181H105.839V12.5015H105.828Z" fill="white"/>
</svg>
