<svg width="20" height="20" viewBox="0 0 20 20" fill="none" xmlns="http://www.w3.org/2000/svg">
<path d="M18.4511 20.0072L11.4486 13.0047C10.8928 13.4493 10.2537 13.8013 9.5312 14.0606C8.80872 14.32 8.03992 14.4496 7.22482 14.4496C5.20557 14.4496 3.49681 13.7501 2.09853 12.3511C0.700252 10.9521 0.000741595 9.24332 5.88101e-07 7.22482C-0.000740419 5.20631 0.69877 3.49755 2.09853 2.09853C3.49829 0.69951 5.20706 0 7.22482 0C9.24258 0 10.9517 0.69951 12.3522 2.09853C13.7527 3.49755 14.4519 5.20631 14.4496 7.22482C14.4496 8.03992 14.32 8.80872 14.0606 9.5312C13.8013 10.2537 13.4493 10.8928 13.0047 11.4486L20.0072 18.4511L18.4511 20.0072ZM7.22482 12.2266C8.6142 12.2266 9.79537 11.7405 10.7683 10.7683C11.7413 9.79611 12.2274 8.61495 12.2266 7.22482C12.2259 5.83469 11.7398 4.65389 10.7683 3.68243C9.79685 2.71097 8.61569 2.2245 7.22482 2.22302C5.83395 2.22154 4.65315 2.70801 3.68243 3.68243C2.71171 4.65686 2.22524 5.83765 2.22302 7.22482C2.2208 8.61198 2.70727 9.79315 3.68243 10.7683C4.6576 11.7435 5.83839 12.2296 7.22482 12.2266Z" fill="#E51837"/>
</svg>
