<svg width="714" height="95" viewBox="0 0 714 95" fill="none" xmlns="http://www.w3.org/2000/svg">
<path d="M6.46814 89.9514C10.6162 93.0435 16.311 94.3687 23.2009 94.3687H80.3596V51.0052C80.3596 43.7902 78.6723 37.4587 74.3133 32.9677C69.9544 28.4767 63.4159 26.2681 54.7683 26.2681H3.51529V39.0784H4.00743C8.01487 39.0784 53.784 39.0784 53.784 39.0784C58.7054 39.0784 61.7286 40.4036 63.6268 42.1705C65.4548 43.9374 66.3688 46.4406 66.3688 49.4591V52.404C64.2596 51.4469 61.377 50.7107 57.4399 50.7107H21.6542C14.6236 50.7107 9.21008 52.3304 5.48386 55.4225C1.75765 58.5146 0 63.1529 0 68.0856V75.7423C0 81.7793 2.17948 86.8593 6.39783 89.9514H6.46814ZM14.0612 70.0734C14.0612 67.423 14.483 66.245 15.6079 65.3615C16.7328 64.4044 19.545 63.521 24.9586 63.521H55.2604C59.2679 63.521 62.1504 64.4044 63.7674 65.7296C65.4548 67.0549 66.3688 68.969 66.3688 72.4293C66.3688 75.8895 65.4548 77.8773 63.9081 79.2762C62.3613 80.675 59.5491 81.5584 55.1901 81.5584H24.8883C19.8263 81.5584 17.014 80.6014 15.7485 79.497C14.483 78.4663 14.0612 77.1411 13.9909 74.7116V70.147L14.0612 70.0734Z" fill="#26347F"/>
<path d="M215.818 57.1816L258.158 26.4142H237.093C237.093 26.4142 221.295 37.9243 212.307 44.3434C210.973 45.3026 207.743 47.9587 203.39 49.2131C201.073 49.8771 196.789 49.7295 196.789 49.7295V0H182.887V94.3681H196.789V63.6007C196.789 63.6007 201.494 63.158 203.46 64.0434C205.918 65.1501 209.147 68.1752 210.06 68.913C218.767 76.2913 239.621 94.3681 239.621 94.3681H260.475L215.818 57.2554V57.1816Z" fill="#26347F"/>
<path d="M389.441 57.1816L431.742 26.4142H410.697C410.697 26.4142 394.912 37.9243 385.933 44.3434C384.67 45.3026 381.373 47.9587 377.024 49.2131C374.709 49.8771 370.429 49.7295 370.429 49.7295V0H356.539V94.3681H370.429V63.6007C370.429 63.6007 375.129 63.158 377.164 64.0434C379.619 65.1501 382.846 68.1752 383.758 68.913C392.457 76.2913 413.292 94.3681 413.292 94.3681H434.128L389.511 57.2554L389.441 57.1816Z" fill="#26347F"/>
<path d="M328.723 53.3912V67.0995C328.723 72.7007 327.101 75.9436 324.562 78.1546C321.954 80.3656 317.935 81.5448 312.717 81.4711H289.519C283.808 81.4711 279.859 80.1445 277.392 77.9335C274.994 75.7225 273.584 72.3322 273.584 67.0995V53.3912C273.584 47.7162 274.994 44.3997 277.392 42.2624C279.789 40.1251 283.737 38.9459 289.519 38.9459H312.858C318.428 38.9459 322.306 40.3462 324.844 42.7046C327.312 45.063 328.793 48.4532 328.793 53.3912M336.267 34.4501C331.543 29.2911 323.998 26.1957 313.422 26.2694H288.885C278.802 26.2694 271.328 29.1437 266.463 34.1553C261.598 39.167 259.553 46.0948 259.553 53.4649V67.1732C259.553 75.5751 261.88 82.6503 266.956 87.3672C272.033 92.084 279.436 94.3687 288.814 94.3687H313.351C323.646 94.3687 331.12 91.347 335.985 86.2617C340.78 81.1763 342.683 74.2485 342.683 67.2469V53.5386C342.683 46.6107 340.991 39.7566 336.267 34.5975V34.4501Z" fill="#26347F"/>
<path d="M165.326 35.0122C160.609 29.5286 153.075 26.2681 142.583 26.2681H125.755C116.461 26.2681 109.349 28.4911 105.195 32.5668C101.111 36.7166 98.0835 42.793 97.7314 52.871V66.3578C98.2243 75.1019 98.4355 81.4748 86.8177 81.1043H85.9023V94.3687H86.8177C105.054 94.1464 111.321 87.9959 111.743 71.9896V52.6487C111.954 48.3508 113.504 45.1643 115.898 42.8671C118.503 40.4217 122.305 39.0138 127.022 39.0138H142.583C147.442 39.0138 151.244 40.4217 153.779 42.8671C156.314 45.3125 157.863 48.8695 157.863 53.7603V94.3687H171.804V55.0941C171.804 47.6838 170.044 40.4217 165.326 34.9381" fill="#26347F"/>
<path d="M517.244 35.0122C512.527 29.5286 504.993 26.2681 494.501 26.2681H477.673C468.379 26.2681 461.267 28.4911 457.113 32.5668C453.029 36.7166 450.001 42.793 449.649 52.871V66.3578C450.142 75.1019 450.354 81.4748 438.736 81.1043H437.82V94.3687H438.736C456.972 94.1464 463.239 87.9959 463.661 71.9896V52.6487C463.872 48.3508 465.422 45.1643 467.815 42.8671C470.421 40.4217 474.223 39.0138 478.94 39.0138H494.501C499.36 39.0138 503.162 40.4217 505.697 42.8671C508.232 45.3125 509.781 48.8695 509.781 53.7603V94.3687H523.722V55.0941C523.722 47.6838 521.962 40.4217 517.244 34.9381" fill="#26347F"/>
<path d="M615.168 79.4162V26.2681H601.126V67.9427C600.914 72.236 599.362 75.419 596.962 77.7137C594.352 80.1564 590.541 81.5629 585.813 81.5629H562.245C557.376 81.5629 553.566 80.1564 551.025 77.7137C548.485 75.2709 546.933 71.7179 546.933 66.8324V26.2681H532.961V65.5C532.961 72.9022 534.725 80.1564 539.453 85.6341C544.181 91.1117 551.731 94.3687 562.245 94.3687H615.097V79.4162H615.168Z" fill="#26347F"/>
<path d="M641.029 52.5356V67.0542L706.61 67.1286V52.6846L641.029 52.5356Z" fill="#26347F"/>
<path d="M714 26.2681H700.214L700.145 94.3687H713.861L714 26.2681Z" fill="#26347F"/>
<path d="M646.503 80.1564C646.503 80.1564 646.503 79.7123 646.503 79.4162V26.2681H632.786L632.717 94.3687H646.572V80.1564H646.503Z" fill="#26347F"/>
</svg>
