<svg width="752" height="125" viewBox="0 0 752 125" fill="none" xmlns="http://www.w3.org/2000/svg">
<path d="M659.412 82.6151V34.1172H646.765V72.1455C646.575 76.0632 645.176 78.9676 643.016 81.0616C640.664 83.2906 637.232 84.574 632.974 84.574H611.748C607.362 84.574 603.931 83.2906 601.643 81.0616C599.355 78.8326 597.957 75.5904 597.957 71.1323V34.1172H585.373V69.9165C585.373 76.6711 586.962 83.2906 591.22 88.289C595.478 93.2874 602.278 96.2594 611.748 96.2594H659.349V82.6151H659.412Z" fill="#26347F"/>
<path d="M229.06 32.9663L199.662 96.8756C195.462 105.698 192.153 111.826 189.672 115.328C187.19 118.83 184.327 121.254 180.954 122.466C177.645 123.678 172.555 124.285 165.81 124.285H162.946V109.536H165.81C168.864 109.536 171.218 109.132 172.873 108.257C174.527 107.381 175.8 106.236 176.691 104.822C177.582 103.408 178.918 100.714 180.827 96.8082C180.827 96.8082 174.845 96.6735 170.964 87.7168C167.082 78.7601 145.766 32.8989 145.766 32.8989H165.364C165.364 32.8989 183.499 74.046 184.263 75.6623C185.026 77.2785 188.972 77.2112 189.608 75.8643C190.244 74.5174 208.888 32.8989 208.888 32.8989H229.06V32.9663Z" fill="#26347F"/>
<path d="M271.787 97.4781H292.7V47.8384H322.766V32.8989H241.785V47.8384H271.787V97.4781Z" fill="#26347F"/>
<path d="M518.273 97.4781V32.8989H574.96V46.6161H536.421V97.4781H518.273Z" fill="#26347F"/>
<path d="M403.741 39.3433C399.624 35.0697 393.385 32.8989 385.151 32.8989H337.487V47.687H384.251C387.982 47.687 390.748 48.5689 392.549 50.3326C394.028 51.7571 394.736 52.7068 394.736 55.2846V56.3699C392.742 55.6916 390.362 55.3524 387.66 55.3524H355.048C348.422 55.3524 343.277 56.9126 339.674 59.8973C336.201 62.8143 334.271 67.2236 334.336 72.3112V79.2982C334.336 85.1999 336.523 90.1519 340.575 93.2045C344.37 96.0535 349.58 97.4781 356.399 97.4781H409.53V56.6413C409.53 49.1794 407.6 43.3456 403.741 39.3433ZM394.736 76.2456C394.736 78.9591 394.157 80.5871 392.87 81.7403C391.905 82.5543 389.911 83.5719 385.73 83.5719H357.814C352.796 83.5719 352.346 82.9613 351.06 82.283C350.224 81.8081 349.13 80.5193 349.13 78.4164V75.4316C349.13 73.1252 350.159 71.2937 350.802 70.751C351.188 70.4118 352.346 69.2586 357.878 69.2586H385.602C388.818 69.2586 391.326 69.8691 392.742 71.0902C393.771 71.9042 394.671 73.1252 394.736 76.3813V76.2456Z" fill="#26347F"/>
<path d="M128.051 41.3517C123.314 35.8067 115.825 32.8989 106.479 32.8989H91.5643C82.7946 32.8989 76.0733 35.0628 72.0405 39.1202C67.4956 43.7185 65.1271 50.075 64.8711 58.5953V70.6997C65.0631 74.6218 65.2552 78.4086 63.6549 80.0316C62.5666 81.1811 60.5182 81.6545 57.2536 81.5869H54.373V97.4781H57.1896C74.0249 97.2752 80.7462 91.1216 81.1303 75.6361V58.5953C81.2583 55.5523 82.2825 53.1179 84.1388 51.3598C86.1872 49.4664 89.0678 48.452 92.5885 48.452H106.351C109.936 48.452 112.88 49.4664 114.865 51.2922C116.849 53.2532 117.809 55.8905 117.873 59.4068V97.4781H134.197V60.5564C134.197 52.577 132.084 46.1529 127.923 41.3517H128.051Z" fill="#26347F"/>
<path d="M738.593 31.6807V57.0244L687.755 56.9567V31.6807H674.515L674.451 96.192H687.819V82.707C687.819 82.707 687.819 82.2327 687.819 82.0294V70.645H738.657V96.2598H751.897L751.961 31.7484H738.721L738.593 31.6807Z" fill="#26347F"/>
<path d="M501.891 40.4139C497.588 35.6755 490.717 32.8324 481.084 32.9001H458.736C453.213 32.9001 448.653 33.9155 444.8 35.7432V32.9001H426.883V123.066H444.864V109.663V92.74C448.782 94.4323 453.341 95.38 458.8 95.38H481.148C490.524 95.38 497.331 92.6046 501.762 87.9338C506.129 83.2631 507.863 76.9 507.863 70.4692V57.8785C507.863 51.5154 506.322 45.2201 502.019 40.4816L501.891 40.4139ZM495.084 70.4016C495.084 75.5462 493.607 78.5246 491.295 80.5554C488.919 82.5861 485.258 83.6692 480.506 83.6015H459.378C454.176 83.6015 450.58 82.3831 448.332 80.3523C446.149 78.3215 444.928 75.3431 444.864 70.74V57.4724C444.928 52.4631 446.149 49.5524 448.332 47.657C450.515 45.6939 454.112 44.6108 459.378 44.6108H480.634C485.708 44.6108 489.24 45.897 491.552 48.0631C493.799 50.2293 495.148 53.3431 495.148 57.8785V70.4692L495.084 70.4016Z" fill="#26347F"/>
<path d="M21.1449 35.1327C21.1449 29.988 23.2015 25.3172 26.0937 22.3387C28.7288 19.6987 32.0065 18.074 39.0763 18.074H67.098V0H0V97.478H21.1449V35.1327Z" fill="#26347F"/>
</svg>
