<svg width="287" height="78" viewBox="0 0 287 78" fill="none" xmlns="http://www.w3.org/2000/svg">
<path d="M259 23.0478V9H255.071V20.0152C255.012 21.15 254.578 21.9913 253.906 22.5978C253.176 23.2435 252.11 23.6152 250.787 23.6152H244.193C242.831 23.6152 241.765 23.2435 241.054 22.5978C240.343 21.9522 239.909 21.013 239.909 19.7217V9H236V19.3696C236 21.3261 236.494 23.2435 237.816 24.6913C239.139 26.1391 241.251 27 244.193 27H258.98V23.0478H259Z" fill="#26347F"/>
<path d="M126 9.01916L117.176 27.2019C115.916 29.7119 114.923 31.4554 114.178 32.4517C113.433 33.448 112.574 34.1378 111.561 34.4827C110.568 34.8276 109.04 35 107.016 35H106.157V30.804H107.016C107.933 30.804 108.639 30.689 109.136 30.4399C109.633 30.1909 110.015 29.8651 110.282 29.4628C110.549 29.0604 110.95 28.294 111.523 27.1828C111.523 27.1828 109.728 27.1444 108.563 24.5962C107.398 22.0479 101 9 101 9H106.882C106.882 9 112.325 20.7067 112.555 21.1665C112.784 21.6264 113.968 21.6072 114.159 21.224C114.35 20.8408 119.946 9 119.946 9H126V9.01916Z" fill="#26347F"/>
<path d="M140.262 27H146.718V13.164H156V9H131V13.164H140.262V27Z" fill="#26347F"/>
<path d="M216 27V9H233V12.8233H221.442V27H216Z" fill="#26347F"/>
<path d="M180.229 10.7962C178.97 9.60504 177.062 9 174.543 9H159.965V13.1218H174.268C175.409 13.1218 176.255 13.3676 176.806 13.8592C177.258 14.2563 177.475 14.521 177.475 15.2395V15.542C176.865 15.3529 176.137 15.2584 175.311 15.2584H165.336C163.309 15.2584 161.735 15.6933 160.633 16.5252C159.571 17.3382 158.981 18.5672 159 19.9853V21.9328C159 23.5777 159.669 24.958 160.909 25.8088C162.07 26.6029 163.663 27 165.749 27H182V15.6176C182 13.5378 181.41 11.9118 180.229 10.7962ZM177.475 21.0819C177.475 21.8382 177.298 22.292 176.904 22.6134C176.609 22.8403 175.999 23.124 174.72 23.124H166.182C164.647 23.124 164.509 22.9538 164.116 22.7647C163.86 22.6324 163.526 22.2731 163.526 21.687V20.855C163.526 20.2122 163.84 19.7017 164.037 19.5504C164.155 19.4559 164.509 19.1345 166.201 19.1345H174.681C175.665 19.1345 176.432 19.3046 176.865 19.645C177.18 19.8718 177.455 20.2122 177.475 21.1197V21.0819Z" fill="#26347F"/>
<path d="M96.1524 11.356C94.7281 9.81047 92.4763 9 89.6664 9H85.182C82.5453 9 80.5245 9.60314 79.3119 10.734C77.9455 12.0157 77.2334 13.7874 77.1564 16.1623V19.5361C77.2141 20.6293 77.2719 21.6848 76.7907 22.1372C76.4635 22.4576 75.8476 22.5895 74.8661 22.5707H74V27H74.8468C79.9086 26.9435 81.9294 25.2283 82.0449 20.912V16.1623C82.0834 15.3141 82.3913 14.6356 82.9495 14.1455C83.5654 13.6178 84.4314 13.3351 85.49 13.3351H89.6279C90.7057 13.3351 91.591 13.6178 92.1877 14.1267C92.7843 14.6733 93.073 15.4084 93.0922 16.3885V27H98V16.7089C98 14.4848 97.3649 12.6942 96.1139 11.356H96.1524Z" fill="#26347F"/>
<path d="M282.861 9V16.064L267.119 16.0451V9H263.02L263 26.9811H267.139V23.2225C267.139 23.2225 267.139 23.0902 267.139 23.0336V19.8604H282.881V27H286.98L287 9.01889H282.9L282.861 9Z" fill="#26347F"/>
<path d="M210.156 11.0836C208.828 9.76984 206.707 8.98156 203.733 9.00033H196.833C195.128 9.00033 193.721 9.28186 192.531 9.78861V9.00033H187V34H192.551V30.2838V25.5917C193.761 26.0609 195.168 26.3237 196.853 26.3237H203.753C206.647 26.3237 208.749 25.5542 210.117 24.2591C211.465 22.9641 212 21.1999 212 19.4169V15.9259C212 14.1617 211.524 12.4162 210.196 11.1024L210.156 11.0836ZM208.055 19.3981C208.055 20.8245 207.599 21.6503 206.885 22.2134C206.151 22.7764 205.021 23.0767 203.554 23.058H197.032C195.426 23.058 194.316 22.7201 193.622 22.1571C192.948 21.594 192.571 20.7682 192.551 19.4919V15.8133C192.571 14.4244 192.948 13.6174 193.622 13.0919C194.296 12.5476 195.406 12.2473 197.032 12.2473H203.594C205.16 12.2473 206.251 12.6039 206.964 13.2045C207.658 13.8051 208.075 14.6684 208.075 15.9259V19.4169L208.055 19.3981Z" fill="#26347F"/>
<path d="M63.6178 9.73125C63.6178 8.30625 64.2615 7.0125 65.1667 6.1875C65.9914 5.45625 67.0172 5.00625 69.2299 5.00625H78V0H57V27H63.6178V9.73125Z" fill="#26347F"/>
<path d="M2.49519 76.4432C4.09536 77.533 6.29221 78 8.95013 78H31V62.7178C31 60.1751 30.3491 57.9438 28.6675 56.3611C26.986 54.7784 24.4637 54 21.1277 54H1.35608V58.5146H1.54593C3.09186 58.5146 20.748 58.5146 20.748 58.5146C22.6465 58.5146 23.8128 58.9816 24.5451 59.6043C25.2502 60.227 25.6028 61.1092 25.6028 62.173V63.2108C24.7892 62.8735 23.6772 62.6141 22.1584 62.6141H8.35346C5.64129 62.6141 3.55293 63.1849 2.11549 64.2746C0.678042 65.3643 0 66.9989 0 68.7373V71.4357C0 73.5632 0.840769 75.3535 2.46807 76.4432H2.49519ZM5.42432 69.4378C5.42432 68.5038 5.58705 68.0886 6.021 67.7773C6.45494 67.44 7.5398 67.1286 9.62817 67.1286H21.3176C22.8635 67.1286 23.9755 67.44 24.5993 67.907C25.2502 68.3741 25.6028 69.0486 25.6028 70.2681C25.6028 71.4876 25.2502 72.1881 24.6535 72.6811C24.0569 73.1741 22.972 73.4854 21.2905 73.4854H9.60105C7.64829 73.4854 6.56343 73.1481 6.07524 72.7589C5.58705 72.3957 5.42432 71.9286 5.3972 71.0724V69.4638L5.42432 69.4378Z" fill="#26347F"/>
<path d="M82.733 64.9961L99.1041 54.2369H90.9593C90.9593 54.2369 84.8507 58.2619 81.3756 60.5066C80.8597 60.8421 79.6109 61.7709 77.9276 62.2095C77.0317 62.4418 75.3756 62.3901 75.3756 62.3901V45H70V78H75.3756V67.2408C75.3756 67.2408 77.1946 67.086 77.9548 67.3956C78.905 67.7826 80.1538 68.8405 80.5068 69.0985C83.8733 71.6787 91.9367 78 91.9367 78H100L82.733 65.0219V64.9961Z" fill="#26347F"/>
<path d="M149.722 64.9961L166.078 54.2369H157.94C157.94 54.2369 151.837 58.2619 148.365 60.5066C147.877 60.8421 146.602 61.7709 144.92 62.2095C144.025 62.4418 142.371 62.3901 142.371 62.3901V45H137V78H142.371V67.2408C142.371 67.2408 144.188 67.086 144.975 67.3956C145.924 67.7826 147.172 68.8405 147.524 69.0985C150.888 71.6787 158.944 78 158.944 78H167L149.749 65.0219L149.722 64.9961Z" fill="#26347F"/>
<path d="M125.626 63.5587V68.3898C125.626 70.3638 125.002 71.5066 124.025 72.2858C123.02 73.065 121.473 73.4806 119.465 73.4546H110.535C108.337 73.4546 106.817 72.9871 105.867 72.2079C104.944 71.4287 104.401 70.2339 104.401 68.3898V63.5587C104.401 61.5588 104.944 60.3899 105.867 59.6367C106.79 58.8835 108.31 58.4679 110.535 58.4679H119.519C121.663 58.4679 123.156 58.9614 124.133 59.7926C125.083 60.6237 125.653 61.8185 125.653 63.5587M128.53 56.8835C126.712 55.0654 123.807 53.9745 119.736 54.0005H110.291C106.41 54.0005 103.533 55.0134 101.66 56.7796C99.7871 58.5458 99 60.9873 99 63.5847V68.4158C99 71.3767 99.8957 73.8702 101.85 75.5325C103.804 77.1948 106.654 78 110.264 78H119.709C123.672 78 126.549 76.9351 128.422 75.1429C130.267 73.3507 131 70.9092 131 68.4417V63.6107C131 61.1692 130.349 58.7536 128.53 56.9355V56.8835Z" fill="#26347F"/>
<path d="M63.5115 57.0816C61.6992 55.1491 58.8049 54 54.7746 54H48.3098C44.7393 54 42.0074 54.7835 40.4115 56.2198C38.8426 57.6823 37.6795 59.8237 37.5443 63.3754V68.1284C37.7336 71.21 37.8148 73.4559 33.3516 73.3254H33V78H33.3516C40.3574 77.9217 42.7648 75.7541 42.927 70.1132V63.2971C43.0082 61.7824 43.6033 60.6594 44.523 59.8498C45.5238 58.988 46.9844 58.4918 48.7967 58.4918H54.7746C56.641 58.4918 58.1016 58.988 59.0754 59.8498C60.0492 60.7116 60.6443 61.9652 60.6443 63.6888V78H66V64.1589C66 61.5473 65.3238 58.988 63.5115 57.0555" fill="#26347F"/>
<path d="M197.511 57.0816C195.699 55.1491 192.805 54 188.775 54H182.31C178.739 54 176.007 54.7835 174.411 56.2198C172.843 57.6823 171.68 59.8237 171.544 63.3754V68.1284C171.734 71.21 171.815 73.4559 167.352 73.3254H167V78H167.352C174.357 77.9217 176.765 75.7541 176.927 70.1132V63.2971C177.008 61.7824 177.603 60.6594 178.523 59.8498C179.524 58.988 180.984 58.4918 182.797 58.4918H188.775C190.641 58.4918 192.102 58.988 193.075 59.8498C194.049 60.7116 194.644 61.9652 194.644 63.6888V78H200V64.1589C200 61.5473 199.324 58.988 197.511 57.0555" fill="#26347F"/>
<path d="M235 72.7304V54H229.705V68.687C229.625 70.2 229.039 71.3217 228.135 72.1304C227.15 72.9913 225.713 73.487 223.93 73.487H215.043C213.207 73.487 211.77 72.9913 210.812 72.1304C209.854 71.2696 209.269 70.0174 209.269 68.2957V54H204V67.8261C204 70.4348 204.665 72.9913 206.448 74.9217C208.231 76.8522 211.078 78 215.043 78H234.973V72.7304H235Z" fill="#26347F"/>
<path d="M245 63V67.9745L270 68V63.051L245 63Z" fill="#26347F"/>
<path d="M273 54H268.025L268 78H272.95L273 54Z" fill="#26347F"/>
<path d="M246.975 72.9913C246.975 72.9913 246.975 72.8348 246.975 72.7304V54H242.025L242 78H247V72.9913H246.975Z" fill="#26347F"/>
</svg>
