<svg width="74" height="88" viewBox="0 0 74 88" fill="none" xmlns="http://www.w3.org/2000/svg">
<path d="M17.8621 0H74V88H0V15.6712L17.8621 0Z" fill="#E51837"/>
<path d="M73.5 0.5V87.5H0.5V15.8975L18.0498 0.5H73.5Z" stroke="#630000" stroke-opacity="0.5"/>
<path opacity="0.15" d="M22 75C22 75.2626 22.4009 75.5227 23.1799 75.7654C23.9588 76.008 25.1005 76.2285 26.5398 76.4142C27.9792 76.5999 29.6879 76.7473 31.5684 76.8478C33.449 76.9483 35.4645 77 37.5 77C39.5355 77 41.551 76.9483 43.4316 76.8478C45.3121 76.7473 47.0208 76.5999 48.4602 76.4142C49.8995 76.2285 51.0412 76.008 51.8201 75.7654C52.5991 75.5227 53 75.2626 53 75C53 74.7374 52.5991 74.4773 51.8201 74.2346C51.0412 73.992 49.8995 73.7715 48.4602 73.5858C47.0208 73.4001 45.3121 73.2527 43.4316 73.1522C41.551 73.0517 39.5355 73 37.5 73C35.4645 73 33.449 73.0517 31.5684 73.1522C29.6879 73.2527 27.9792 73.4001 26.5398 73.5858C25.1005 73.7715 23.9588 73.992 23.1799 74.2346C22.4009 74.4773 22 74.7374 22 75Z" fill="#E00000"/>
<path d="M59.4255 47.8722C58.9396 46.1946 58.7132 44.4526 58.7543 42.7067C58.7866 41.7452 58.6187 40.7874 58.2614 39.894C57.9041 39.0006 57.3652 38.191 56.6786 37.5164L55.5102 36.3616C54.8382 35.6748 54.0301 35.1357 53.1376 34.7786C52.2451 34.4215 51.2879 34.2544 50.3271 34.288C48.5734 34.3162 46.8257 34.0776 45.144 33.5802C38.1586 31.7052 30.5641 34.5115 25.033 40.0246C19.5019 45.5378 16.7052 53.1743 18.5821 60.1651C19.0657 61.8429 19.2879 63.5851 19.2408 65.3305C19.214 66.2925 19.3855 67.2497 19.7447 68.1426C20.1039 69.0355 20.6432 69.845 21.329 70.5209L22.4849 71.6756C23.1602 72.3615 23.9707 72.9 24.865 73.2569C25.7593 73.6138 26.718 73.7815 27.6805 73.7493C29.4282 73.7083 31.1719 73.9344 32.8512 74.4198C39.849 76.2948 47.4434 73.4885 52.9621 67.9754C58.4809 62.4622 61.2899 54.863 59.4255 47.8722Z" fill="#FFE500"/>
<path d="M25.0345 45.8531C30.5664 40.5133 38.1619 37.7953 45.1483 39.6113C46.8322 40.0809 48.5801 40.2999 50.3321 40.2608C51.2931 40.2283 52.2504 40.3901 53.143 40.736C54.0356 41.0818 54.8438 41.604 55.516 42.2692L56.6845 43.3877C57.3712 44.0411 57.9103 44.8253 58.2676 45.6906C58.6249 46.5559 58.7928 47.4835 58.7605 48.4148C58.7195 50.1058 58.9458 51.793 59.4318 53.4179C59.5437 53.8508 59.6432 54.2838 59.7302 54.7288C60.172 52.2947 60.0703 49.7974 59.4318 47.4046C58.9458 45.7797 58.7195 44.0925 58.7605 42.4015C58.7928 41.4702 58.6249 40.5426 58.2676 39.6773C57.9103 38.812 57.3712 38.0278 56.6845 37.3744L55.516 36.2559C54.8438 35.5907 54.0356 35.0685 53.143 34.7227C52.2504 34.3768 51.2931 34.215 50.3321 34.2475C48.5782 34.2748 46.8303 34.0437 45.1483 33.562C38.1619 31.7459 30.5664 34.4639 25.0345 39.8038C19.9004 44.8429 17.0785 51.6019 18.2719 58C19.1909 53.3779 21.5509 49.1389 25.0345 45.8531Z" fill="#FFF48C"/>
<path d="M59.4255 47.8722C58.9396 46.1946 58.7132 44.4526 58.7543 42.7067C58.7866 41.7452 58.6187 40.7874 58.2614 39.894C57.9041 39.0006 57.3652 38.191 56.6786 37.5164L55.5102 36.3616C54.8382 35.6748 54.0301 35.1357 53.1376 34.7786C52.2451 34.4215 51.2879 34.2544 50.3271 34.288C48.5734 34.3162 46.8257 34.0776 45.144 33.5802C38.1586 31.7052 30.5641 34.5115 25.033 40.0246C19.5019 45.5378 16.7052 53.1743 18.5821 60.1651C19.0657 61.8429 19.2879 63.5851 19.2408 65.3305C19.214 66.2925 19.3855 67.2497 19.7447 68.1426C20.1039 69.0355 20.6432 69.845 21.329 70.5209L22.4849 71.6756C23.1602 72.3615 23.9707 72.9 24.865 73.2569C25.7593 73.6138 26.718 73.7815 27.6805 73.7493C29.4282 73.7083 31.1719 73.9344 32.8512 74.4198C39.849 76.2948 47.4434 73.4885 52.9621 67.9754C58.4809 62.4622 61.2899 54.863 59.4255 47.8722Z" stroke="#E00000" stroke-width="0.5" stroke-linecap="round" stroke-linejoin="round"/>
<path d="M54 38.1631C56.3685 35.8446 59.4093 34.1275 62.8018 33.1927C66.1141 32.4109 66.8086 34.1728 66.9956 35.5262C67.0254 35.8643 66.9022 36.1991 66.6525 36.4588C66.4027 36.7184 66.0464 36.8821 65.66 36.9147C62.2068 37.2416 58.8969 38.2988 56.0168 39.995C54.2137 40.1116 54 38.1631 54 38.1631Z" fill="#DEBB7E"/>
<path d="M54.8256 40C57.0494 37.9332 59.7951 36.4089 62.8157 35.5641C65.0796 35.0112 66.1316 35.7116 66.6243 36.6577C66.8875 36.3802 67.0215 36.0182 66.9972 35.6501C66.8773 34.2493 66.1183 32.3939 62.8157 33.1926C59.4174 34.1745 56.3709 35.9877 54 38.4395C54.0778 39.0303 54.3686 39.58 54.8256 40Z" fill="#F0D5A8"/>
<path d="M54 38.1625C56.3728 35.8465 59.4122 34.1287 62.8018 33.1879C66.1141 32.4172 66.8086 34.1805 66.9956 35.5234C67.0254 35.8618 66.9022 36.1969 66.6525 36.4567C66.4027 36.7166 66.0464 36.8804 65.66 36.913C62.208 37.2448 58.8993 38.3025 56.0168 39.9959C54.2137 40.101 54 38.1625 54 38.1625Z" stroke="#E00000" stroke-width="0.5" stroke-linecap="round" stroke-linejoin="round"/>
<path d="M55.3913 38C56.1259 35.973 56.1973 33.7857 55.5962 31.7202C54.995 29.6548 53.7489 27.8058 52.0185 26.4117C50.3525 24.7753 48.1913 23.6594 45.8276 23.2149C43.4639 22.7705 41.0119 23.019 38.8036 23.9268C38.561 24.0268 38.3553 24.192 38.2125 24.4016C38.0697 24.6111 37.9962 24.8557 38.0011 25.1045C37.9753 26.8994 38.3867 28.676 39.2037 30.2986C40.0208 31.9213 41.2219 33.3471 42.7154 34.467C47.6679 38 52.7332 33.9253 55.3913 38Z" fill="#6DD627"/>
<path d="M38.8027 27.9707C41.0068 26.9468 43.4549 26.6607 45.8175 27.151C48.1801 27.6413 50.344 28.8844 52.0179 30.7132C54.0386 32.6129 55.3872 35.1827 55.842 38C56.1681 35.942 55.9875 33.83 55.3178 31.8671C54.6481 29.9042 53.5117 28.1563 52.0179 26.7916C50.3445 24.9618 48.1799 23.7189 45.8165 23.2308C43.4531 22.7427 41.0049 23.033 38.8027 24.0624C38.5601 24.1748 38.3544 24.3607 38.2116 24.5964C38.0688 24.8322 37.9953 25.1074 38.0002 25.3873C38.0117 26.3981 38.1166 27.4054 38.3137 28.3947C38.4434 28.2153 38.6108 28.0701 38.8027 27.9707Z" fill="#9CEB60"/>
<path d="M55.3913 38C56.1259 35.973 56.1973 33.7857 55.5962 31.7202C54.995 29.6548 53.7489 27.8058 52.0185 26.4117C50.3525 24.7753 48.1913 23.6594 45.8276 23.2149C43.4639 22.7705 41.0119 23.019 38.8036 23.9268C38.561 24.0268 38.3553 24.192 38.2125 24.4016C38.0697 24.6111 37.9962 24.8557 38.0011 25.1045C37.9753 26.8994 38.3867 28.676 39.2037 30.2986C40.0208 31.9213 41.2219 33.3471 42.7154 34.467C47.6679 38 52.7332 33.9253 55.3913 38Z" stroke="#E00000" stroke-width="0.5" stroke-linecap="round" stroke-linejoin="round"/>
<path d="M54 40C54 40 54 32.9236 47 30" stroke="#E00000" stroke-width="0.5" stroke-linecap="round" stroke-linejoin="round"/>
</svg>
